<svg width="50" height="50" viewBox="0 0 50 50" fill="none" xmlns="http://www.w3.org/2000/svg">
<g clip-path="url(#clip0_2009_13)">
<path d="M36.2062 18.7109L36.2062 18.7108C35.5247 18.1927 34.544 18.316 34.0177 18.9821L28.0726 26.507L27.9196 26.7007L27.724 26.5501L20.9264 21.3169L20.9264 21.3169C20.5995 21.0651 20.1826 20.9513 19.7686 21.0022C19.3547 21.0531 18.98 21.2641 18.7271 21.5864L11.5136 30.7791L11.5135 30.7791C10.9918 31.4439 11.1171 32.3977 11.7976 32.9115C12.4809 33.4272 13.4611 33.3008 13.9852 32.6329L13.9852 32.6328L20.0857 24.8586L20.2386 24.6637L20.4349 24.8148L27.2274 30.0445L27.2274 30.0445C27.5536 30.2958 27.9694 30.4094 28.3829 30.3594L36.2062 18.7109ZM36.2062 18.7109C36.8849 19.2266 37.007 20.1808 36.4831 20.844M36.2062 18.7109L36.4831 20.844M36.4831 20.844L29.4238 29.7791M36.4831 20.844L29.4238 29.7791M29.4238 29.7791C29.1703 30.0999 28.796 30.3093 28.3829 30.3594L29.4238 29.7791Z" fill="#D4A575" stroke="#252424" stroke-width="0.5"/>
<path d="M43.4787 3.67214C41.784 3.67214 40.404 5.01863 40.404 6.69249C40.404 8.36451 41.7846 9.71284 43.4787 9.71284C45.1728 9.71284 46.5534 8.36451 46.5534 6.69249C46.5534 5.01863 45.1735 3.67214 43.4787 3.67214ZM37.2888 6.69249C37.2888 3.34565 40.0544 0.626465 43.4787 0.626465C46.9031 0.626465 49.6686 3.34565 49.6686 6.69249C49.6686 10.0364 46.9037 12.7585 43.4787 12.7585C40.0537 12.7585 37.2888 10.0364 37.2888 6.69249Z" fill="#D4A575" stroke="#252424" stroke-width="0.5"/>
<path d="M7.96227 9.66966C4.93921 12.6346 3.53954 17.5609 3.53954 25.6761C3.53954 33.7925 4.93922 38.7189 7.96223 41.6834C10.9838 44.6468 16.0032 46.0183 24.2758 46.0183C32.5495 46.0183 37.5688 44.6466 40.59 41.6834C43.6127 38.7189 45.0119 33.7927 45.0119 25.6761C45.0119 23.0539 44.8673 20.7493 44.561 18.7277C44.4356 17.9005 45.0175 17.1228 45.8721 16.9983C46.7278 16.8735 47.517 17.453 47.6426 18.2814C47.9773 20.4909 48.1271 22.9515 48.1271 25.6761C48.1271 33.9595 46.7399 39.9658 42.7961 43.8337C38.8511 47.7031 32.7235 49.0639 24.2758 49.0639C15.829 49.0639 9.70156 47.7031 5.75609 43.8337C1.81202 39.9658 0.424347 33.9597 0.424347 25.6761C0.424347 17.3938 1.81204 11.3876 5.75605 7.51946C9.70148 3.64993 15.8289 2.28833 24.2758 2.28833C27.0031 2.28833 29.4698 2.43031 31.6895 2.74623C32.5446 2.86795 33.1291 3.64372 33.0067 4.4712C32.884 5.29982 32.0969 5.882 31.2406 5.76013C29.209 5.47095 26.8987 5.334 24.2758 5.334C16.0033 5.334 10.9839 6.70613 7.96227 9.66966Z" fill="#D4A575" stroke="#252424" stroke-width="0.5"/>
</g>
<defs>
<clipPath id="clip0_2009_13">
<rect width="50" height="50" fill="white"/>
</clipPath>
</defs>
</svg>
