<svg width="50" height="36" viewBox="0 0 50 36" fill="none" xmlns="http://www.w3.org/2000/svg">
<g clip-path="url(#clip0_2009_11)">
<path d="M47.2071 0.392451C46.7034 0.40758 46.2253 0.619774 45.8741 0.984081L16.2245 30.8709L4.02386 18.5727C3.84521 18.3851 3.63123 18.2354 3.39445 18.1322C3.15767 18.029 2.90285 17.9745 2.64491 17.9719C2.38698 17.9693 2.13111 18.0185 1.8923 18.1168C1.65349 18.2151 1.43653 18.3604 1.25413 18.5442C1.07173 18.7281 0.927562 18.9468 0.830062 19.1875C0.732563 19.4282 0.683694 19.6862 0.686319 19.9462C0.688943 20.2062 0.743007 20.463 0.845345 20.7017C0.947683 20.9404 1.09624 21.1561 1.28231 21.3361L14.8537 35.0161C15.2173 35.3825 15.7104 35.5883 16.2245 35.5883C16.7386 35.5883 17.2317 35.3825 17.5953 35.0161L48.6157 3.74756C48.8959 3.47306 49.0872 3.11964 49.1647 2.73363C49.2422 2.34762 49.2021 1.94703 49.0499 1.58434C48.8976 1.22165 48.6402 0.913794 48.3113 0.701111C47.9825 0.488428 47.5976 0.380842 47.2071 0.392451Z" fill="#D4A575"/>
</g>
<defs>
<clipPath id="clip0_2009_11">
<rect width="50" height="36" fill="white"/>
</clipPath>
</defs>
</svg>
