<svg width="50" height="48" viewBox="0 0 50 48" fill="none" xmlns="http://www.w3.org/2000/svg">
<path d="M27.9937 42.816C26.935 43.7949 25.7583 44.8412 25.002 45.0765C24.1086 44.8039 22.6511 43.4266 20.5191 41.4121C20.157 41.07 19.7726 40.7068 19.3633 40.3228C11.4411 32.8874 2.94139 22.0074 2.8447 13.7698C2.81157 10.9516 3.73822 8.65363 5.67741 6.74432C8.19943 4.26141 11.49 2.894 14.9432 2.894C18.3356 2.894 21.5617 4.1989 24.0277 6.56836C24.5756 7.09478 25.432 7.09478 25.98 6.56836C28.4464 4.1989 31.673 2.894 35.0654 2.894C38.5185 2.894 41.8092 4.26141 44.3312 6.74417C48.3235 10.6749 48.1016 16.6147 43.6721 24.3986C43.2786 25.0901 43.5105 25.9754 44.1901 26.3759C44.8695 26.7766 45.7396 26.5406 46.1332 25.8489C52.5711 14.5355 49.782 8.0841 46.3086 4.66426C43.253 1.65652 39.2601 0 35.0651 0C31.3778 0 27.8515 1.26916 25.0037 3.59811C22.1564 1.26902 18.6303 0 14.9431 0C10.7482 0 6.75535 1.65652 3.69997 4.6644C1.20326 7.12271 -0.0411907 10.1977 0.0010397 13.8042C0.136405 25.3286 13.3796 38.6436 17.4352 42.4502C17.842 42.832 18.2241 43.1929 18.584 43.5328C21.5562 46.3413 23.0482 47.7508 24.8185 47.9877C24.8799 47.9959 24.9419 48 25.0037 48C25.0656 48 25.1274 47.9959 25.1889 47.9877C26.612 47.7976 27.8939 46.8181 29.9059 44.958C30.487 44.4206 30.5302 43.5055 30.0021 42.9139C29.4742 42.3226 28.575 42.2787 27.9937 42.816Z" fill="#D4A575"/>
<path d="M45.1505 28.7409H40.5838V24.094C40.5838 23.2949 39.9472 22.647 39.1619 22.647H33.4437C32.6584 22.647 32.0218 23.2949 32.0218 24.094V28.7409H27.4551C26.6698 28.7409 26.0332 29.3888 26.0332 30.1879V36.0075C26.0332 36.8066 26.6698 37.4545 27.4551 37.4545H32.0218V42.1014C32.0218 42.9005 32.6584 43.5484 33.4437 43.5484H39.1619C39.9472 43.5484 40.5838 42.9005 40.5838 42.1014V37.4545H45.1505C45.9358 37.4545 46.5724 36.8066 46.5724 36.0075V30.1879C46.5724 29.3887 45.9358 28.7409 45.1505 28.7409ZM43.7286 34.5606H39.1619C38.3765 34.5606 37.74 35.2085 37.74 36.0075V40.6544H34.8656V36.0075C34.8656 35.2085 34.229 34.5606 33.4437 34.5606H28.877V31.6349H33.4437C34.229 31.6349 34.8656 30.9869 34.8656 30.1879V25.541H37.74V30.1879C37.74 30.9869 38.3765 31.6349 39.1619 31.6349H43.7286V34.5606Z" fill="#D4A575"/>
</svg>
