<svg width="50" height="50" viewBox="0 0 50 50" fill="none" xmlns="http://www.w3.org/2000/svg">
<g clip-path="url(#clip0_2009_5)">
<path d="M25 0C11.2148 0 0 11.2148 0 25C0 38.7852 11.2148 50 25 50C38.7852 50 50 38.7852 50 25C50 11.2148 38.7852 0 25 0ZM25 47.7273C12.4682 47.7273 2.27273 37.5318 2.27273 25C2.27273 12.4682 12.4682 2.27273 25 2.27273C37.5318 2.27273 47.7273 12.4682 47.7273 25C47.7273 37.5318 37.5318 47.7273 25 47.7273Z" fill="#D4A575"/>
<path d="M37.5 27.2727C36.8727 27.2727 36.3636 27.7818 36.3636 28.4091C36.3636 34.675 31.2659 39.7727 25 39.7727C18.7341 39.7727 13.6364 34.675 13.6364 28.4091C13.6364 27.7818 13.1273 27.2727 12.5 27.2727C11.8727 27.2727 11.3636 27.7818 11.3636 28.4091C11.3636 35.9284 17.4807 42.0454 25 42.0454C32.5193 42.0454 38.6364 35.9284 38.6364 28.4091C38.6364 27.7818 38.1273 27.2727 37.5 27.2727Z" fill="#D4A575"/>
<path d="M14.7727 15.9092C16.6523 15.9092 18.1818 17.4387 18.1818 19.3183C18.1818 19.9456 18.6909 20.4547 19.3182 20.4547C19.9455 20.4547 20.4545 19.9456 20.4545 19.3183C20.4545 16.1853 17.9057 13.6365 14.7727 13.6365C11.6398 13.6365 9.09091 16.1853 9.09091 19.3183C9.09091 19.9456 9.6 20.4547 10.2273 20.4547C10.8545 20.4547 11.3636 19.9456 11.3636 19.3183C11.3636 17.4387 12.8932 15.9092 14.7727 15.9092Z" fill="#D4A575"/>
<path d="M35.2273 13.6365C32.0943 13.6365 29.5455 16.1853 29.5455 19.3183C29.5455 19.9456 30.0545 20.4547 30.6818 20.4547C31.3091 20.4547 31.8182 19.9456 31.8182 19.3183C31.8182 17.4387 33.3477 15.9092 35.2273 15.9092C37.1068 15.9092 38.6364 17.4387 38.6364 19.3183C38.6364 19.9456 39.1455 20.4547 39.7727 20.4547C40.4 20.4547 40.9091 19.9456 40.9091 19.3183C40.9091 16.1853 38.3602 13.6365 35.2273 13.6365Z" fill="#D4A575"/>
</g>
<defs>
<clipPath id="clip0_2009_5">
<rect width="50" height="50" fill="white"/>
</clipPath>
</defs>
</svg>
