<svg width="132" height="44" viewBox="0 0 132 44" fill="none" xmlns="http://www.w3.org/2000/svg">
<rect width="132" height="44" rx="5" fill="#101010"/>
<path fill-rule="evenodd" clip-rule="evenodd" d="M33.4611 11C33.545 12.0993 33.197 13.1881 32.4911 14.035C32.1533 14.4553 31.7245 14.7934 31.2371 15.024C30.7497 15.2545 30.2163 15.3715 29.6771 15.366C29.6428 14.8373 29.713 14.307 29.8837 13.8055C30.0544 13.3039 30.3223 12.841 30.6721 12.443C31.3871 11.6287 32.3824 11.1135 33.4601 11H33.4611ZM36.9161 17.46C36.2978 17.8401 35.7858 18.3704 35.4275 19.0016C35.0693 19.6328 34.8765 20.3443 34.8671 21.07C34.8681 21.8864 35.1093 22.6845 35.5608 23.3647C36.0124 24.0449 36.6541 24.5771 37.4061 24.895C37.1107 25.8556 36.6652 26.7635 36.0861 27.585C35.3081 28.748 34.4921 29.885 33.1981 29.905C32.5821 29.92 32.1671 29.743 31.7341 29.558C31.2821 29.366 30.8121 29.165 30.0751 29.165C29.2951 29.165 28.8031 29.372 28.3291 29.572C27.9191 29.744 27.5221 29.912 26.9631 29.934C25.7301 29.98 24.7881 28.693 23.9831 27.54C22.3711 25.187 21.1171 20.908 22.7991 17.996C23.1874 17.2983 23.7498 16.7131 24.4315 16.2974C25.1133 15.8817 25.891 15.6497 26.6891 15.624C27.3871 15.609 28.0581 15.879 28.6461 16.115C29.0961 16.295 29.4971 16.457 29.8261 16.457C30.1151 16.457 30.5061 16.302 30.9601 16.122C31.6761 15.837 32.5531 15.49 33.4461 15.583C34.1305 15.6045 34.8005 15.7852 35.4028 16.1109C36.0052 16.4365 36.5233 16.8991 36.9161 17.46Z" fill="#CACACA"/>
<path d="M51.688 16.024H52.792L57.672 27H56.072L54.616 23.784H49.976L48.6 27H47L51.688 16.024ZM52.216 18.424L50.584 22.376H53.976L52.216 18.424ZM58.5839 30.68V19.816H61.0799C62.1359 19.816 62.9839 20.024 63.6399 20.424C64.7759 21.144 65.1279 22.392 65.1279 23.416C65.1279 24.488 64.7919 25.368 64.1359 26.072C63.4799 26.792 62.6159 27.144 61.5599 27.144C61.0959 27.144 60.5999 27.032 60.0399 26.824V30.68H58.5839ZM61.0479 21.144H60.0399V25.56C60.4719 25.784 60.9359 25.896 61.4159 25.896C62.7119 25.896 63.6719 24.904 63.6719 23.416C63.6079 22.072 63.0639 21.48 62.2639 21.288C61.6879 21.128 61.4959 21.144 61.0479 21.144ZM66.5839 30.68V19.816H69.0799C70.1359 19.816 70.9839 20.024 71.6399 20.424C72.7759 21.144 73.1279 22.392 73.1279 23.416C73.1279 24.488 72.7919 25.368 72.1359 26.072C71.4799 26.792 70.6159 27.144 69.5599 27.144C69.0959 27.144 68.5999 27.032 68.0399 26.824V30.68H66.5839ZM69.0479 21.144H68.0399V25.56C68.4719 25.784 68.9359 25.896 69.4159 25.896C70.7119 25.896 71.6719 24.904 71.6719 23.416C71.6079 22.072 71.0639 21.48 70.2639 21.288C69.6879 21.128 69.4959 21.144 69.0479 21.144ZM84.509 16.712V18.488C83.725 17.736 82.861 17.352 81.949 17.352C80.909 17.352 80.221 17.912 80.221 18.616C80.221 19.048 80.397 19.416 80.733 19.704C81.069 19.992 81.805 20.472 82.941 21.144C83.533 21.496 84.013 21.896 84.349 22.36C84.749 22.872 84.941 23.48 84.941 24.168C84.941 25.032 84.653 25.736 84.077 26.296C83.501 26.856 82.733 27.144 81.773 27.144C80.701 27.144 79.709 26.808 78.829 26.136V24.152C79.677 25.224 80.669 25.752 81.773 25.752C82.653 25.752 83.469 25.192 83.469 24.312C83.469 23.624 82.989 22.984 82.029 22.424C81.085 21.864 80.461 21.464 80.141 21.24C79.821 21.016 79.549 20.76 79.325 20.472C78.957 20.008 78.781 19.464 78.781 18.84C78.781 17.992 79.069 17.304 79.661 16.76C80.253 16.216 81.021 15.944 81.997 15.944C82.893 15.944 83.725 16.2 84.509 16.712ZM85.4531 20.952L88.1251 18.328V19.816H90.3971V21.096H88.1251V24.232C88.1411 24.696 88.1571 24.984 88.1891 25.128C88.2051 25.272 88.2691 25.416 88.3811 25.544C88.5731 25.752 88.8291 25.848 89.1491 25.848C89.6771 25.848 90.2051 25.672 90.7651 25.336V26.664C90.1731 26.984 89.5651 27.144 88.9251 27.144C88.3011 27.144 87.5011 26.872 87.0531 26.232C86.8131 25.88 86.7011 25.224 86.7011 24.28V21.096H85.4531V20.952ZM95.2918 19.672C96.3798 19.672 97.2918 20.024 98.0118 20.712C98.7318 21.4 99.0998 22.312 99.0998 23.432C99.0998 24.616 98.7158 25.528 97.9318 26.168C97.1478 26.824 96.2518 27.144 95.2438 27.144C94.1078 27.144 93.1957 26.776 92.4918 26.056C91.7718 25.336 91.4198 24.44 91.4198 23.4C91.4198 22.36 91.7718 21.464 92.4918 20.744C93.1957 20.024 94.1238 19.672 95.2918 19.672ZM95.2118 20.952C93.8678 20.952 92.8758 21.88 92.8758 23.416C92.8758 24.232 93.1158 24.856 93.6118 25.256C94.1078 25.656 94.6518 25.864 95.2758 25.864C96.6838 25.864 97.6438 24.856 97.6438 23.4C97.6438 22.584 97.3878 21.96 96.8918 21.56C96.3958 21.16 95.8358 20.952 95.2118 20.952ZM100.616 27V19.816H102.04V21.464C102.376 20.936 102.504 20.76 102.904 20.312C103.288 19.88 103.72 19.672 104.184 19.672C104.744 19.672 105.304 19.944 105.864 20.488L105.112 21.736C104.808 21.432 104.232 21.032 103.736 21.032C103.368 21.032 103 21.224 102.616 21.592C102.232 21.96 102.04 22.52 102.04 23.24V27H100.616ZM112.446 24.904V26.296C111.566 26.856 110.638 27.144 109.63 27.144C108.622 27.144 107.806 26.808 107.15 26.136C106.43 25.4 106.078 24.472 106.078 23.368C106.078 22.264 106.398 21.368 107.022 20.68C107.646 20.008 108.462 19.672 109.438 19.672C111.086 19.672 112.238 20.84 112.494 22.456C112.542 22.776 112.574 23.128 112.574 23.528H107.518C107.582 24.744 108.382 25.784 109.838 25.784C110.782 25.784 111.646 25.496 112.446 24.904ZM107.549 22.68H111.166C111.15 22.408 111.102 22.168 110.91 21.704C110.702 21.24 110.174 20.904 109.422 20.904C108.862 20.904 108.414 21.112 108.046 21.512C107.789 21.784 107.63 22.184 107.549 22.68Z" fill="#CACACA"/>
</svg>
