<svg width="45" height="45" viewBox="0 0 45 45" fill="none" xmlns="http://www.w3.org/2000/svg">
<circle cx="22.5" cy="22.5" r="21.5" stroke="#D4A575" stroke-width="2"/>
<path d="M21.5234 28.9805V15.3574H26.123C27.9785 15.3574 29.4466 15.6374 30.5273 16.1973C31.6081 16.7507 32.4674 17.5677 33.1055 18.6484C33.7435 19.7292 34.0625 20.9076 34.0625 22.1836C34.0625 23.0951 33.8867 23.9674 33.5352 24.8008C33.1836 25.6341 32.6823 26.3665 32.0312 26.998C31.3672 27.6491 30.5957 28.1406 29.7168 28.4727C29.2025 28.6745 28.7305 28.8112 28.3008 28.8828C27.8711 28.9479 27.0508 28.9805 25.8398 28.9805H21.5234ZM25.918 17.0957H23.4766V27.2422H25.9766C26.9531 27.2422 27.7116 27.1771 28.252 27.0469C28.7923 26.9102 29.2415 26.7409 29.5996 26.5391C29.9642 26.3307 30.2962 26.0768 30.5957 25.7773C31.5592 24.8008 32.041 23.5671 32.041 22.0762C32.041 20.6113 31.5462 19.4167 30.5566 18.4922C30.1921 18.1471 29.7721 17.8639 29.2969 17.6426C28.8281 17.4212 28.3822 17.2747 27.959 17.2031C27.5358 17.1315 26.8555 17.0957 25.918 17.0957Z" fill="#D4A575"/>
<path d="M13.6035 21.0605H13.7207C14.5736 21.0605 15.2214 20.8848 15.6641 20.5332C16.1133 20.1816 16.3379 19.6706 16.3379 19C16.3379 18.3945 16.1198 17.903 15.6836 17.5254C15.2539 17.1478 14.6875 16.959 13.9844 16.959C13.2747 16.959 12.487 17.1803 11.6211 17.623V15.7578C12.4154 15.3607 13.2812 15.1621 14.2188 15.1621C15.4753 15.1621 16.4648 15.4909 17.1875 16.1484C17.9167 16.806 18.2812 17.7044 18.2812 18.8438C18.2812 19.5339 18.1413 20.1165 17.8613 20.5918C17.5814 21.0605 17.1354 21.4642 16.5234 21.8027C17.0573 22.0111 17.4479 22.2682 17.6953 22.5742C17.9427 22.8737 18.1348 23.2383 18.2715 23.668C18.4082 24.0977 18.4766 24.5534 18.4766 25.0352C18.4766 26.2266 18.0794 27.2129 17.2852 27.9941C16.4909 28.7689 15.4883 29.1562 14.2773 29.1562C13.2422 29.1562 12.2428 28.9056 11.2793 28.4043V26.2754C12.3079 26.9199 13.3073 27.2422 14.2773 27.2422C14.9349 27.2422 15.4622 27.0469 15.8594 26.6562C16.263 26.2656 16.4648 25.748 16.4648 25.1035C16.4648 24.5632 16.2988 24.0911 15.9668 23.6875C15.7715 23.4596 15.5534 23.2936 15.3125 23.1895C15.0781 23.0788 14.5671 22.9746 13.7793 22.877L13.6035 22.8574V21.0605Z" fill="#D4A575"/>
</svg>
