<svg width="45" height="45" viewBox="0 0 45 45" fill="none" xmlns="http://www.w3.org/2000/svg">
<circle cx="22.5" cy="22.5" r="21.5" stroke="#D4A575" stroke-width="2"/>
<path d="M30.0361 18.0054C31.4072 18.0054 32.5477 18.4391 33.4575 19.3066C34.3716 20.1742 34.8286 21.2617 34.8286 22.5693C34.8286 23.877 34.3674 24.9603 33.4448 25.8193C32.5265 26.6742 31.367 27.1016 29.9663 27.1016C28.6291 27.1016 27.514 26.6742 26.6211 25.8193C25.7324 24.9603 25.2881 23.8854 25.2881 22.5947C25.2881 21.2702 25.7367 20.1742 26.6338 19.3066C27.5309 18.4391 28.665 18.0054 30.0361 18.0054ZM30.0869 19.2114C29.0713 19.2114 28.2355 19.5288 27.5796 20.1636C26.9279 20.7983 26.6021 21.6087 26.6021 22.5947C26.6021 23.5511 26.93 24.3467 27.5859 24.9814C28.2419 25.6162 29.0628 25.9336 30.0488 25.9336C31.0391 25.9336 31.8643 25.6099 32.5244 24.9624C33.1888 24.3149 33.521 23.5088 33.521 22.5439C33.521 21.6045 33.1888 20.8153 32.5244 20.1763C31.8643 19.533 31.0518 19.2114 30.0869 19.2114Z" fill="#D4A575"/>
<path d="M24.1201 24.9434V26.3398C23.1891 26.8477 22.1143 27.1016 20.8955 27.1016C19.9053 27.1016 19.0653 26.9027 18.3755 26.5049C17.6857 26.1071 17.1398 25.5591 16.7378 24.8608C16.3358 24.1626 16.1348 23.4072 16.1348 22.5947C16.1348 21.304 16.5939 20.2186 17.5122 19.3384C18.4347 18.4582 19.571 18.0181 20.9209 18.0181C21.8519 18.0181 22.8866 18.2614 24.0249 18.748V20.1128C22.9881 19.5203 21.9746 19.2241 20.9844 19.2241C19.9688 19.2241 19.1245 19.5457 18.4517 20.189C17.783 20.828 17.4487 21.6299 17.4487 22.5947C17.4487 23.568 17.7788 24.3678 18.439 24.9941C19.0991 25.6204 19.9434 25.9336 20.9717 25.9336C22.0465 25.9336 23.096 25.6035 24.1201 24.9434Z" fill="#D4A575"/>
<path d="M9.97754 18.1323H15.0049V19.2622H11.2471V21.9663H14.8779V23.1025H11.2471V25.8574H15.1255V26.9873H9.97754V18.1323Z" fill="#D4A575"/>
</svg>
