<svg width="45" height="45" viewBox="0 0 45 45" fill="none" xmlns="http://www.w3.org/2000/svg">
<path d="M28.1885 25.1689H33.8867V26.0381H31.5088V32H30.5273V26.0381H28.1885V25.1689Z" fill="#D4A575"/>
<path d="M26.2793 25.1787H27.2559V32H26.2793V25.1787Z" fill="#D4A575"/>
<path d="M21.3672 25.1787H22.3438V31.1113H25.415V32H21.3672V25.1787Z" fill="#D4A575"/>
<path d="M16.2158 32V25.1689H18.3789C19.0299 25.1689 19.5492 25.3447 19.9365 25.6963C20.3239 26.0479 20.5176 26.5199 20.5176 27.1123C20.5176 27.5094 20.4183 27.861 20.2197 28.167C20.0212 28.473 19.7493 28.696 19.4043 28.8359C19.0592 28.9727 18.5645 29.041 17.9199 29.041H17.1973V32H16.2158ZM18.208 26.0381H17.1973V28.1719H18.2666C18.6637 28.1719 18.9697 28.0791 19.1846 27.8936C19.3994 27.7048 19.5068 27.4362 19.5068 27.0879C19.5068 26.388 19.0739 26.0381 18.208 26.0381Z" fill="#D4A575"/>
<path d="M13.3789 29.1387L12.6367 28.6895C12.1712 28.4062 11.8392 28.1279 11.6406 27.8545C11.4453 27.5778 11.3477 27.2604 11.3477 26.9023C11.3477 26.3652 11.5332 25.929 11.9043 25.5938C12.2786 25.2585 12.7637 25.0908 13.3594 25.0908C13.929 25.0908 14.4515 25.2503 14.9268 25.5693V26.6777C14.4352 26.2057 13.9062 25.9697 13.3398 25.9697C13.0208 25.9697 12.7588 26.0446 12.5537 26.1943C12.3486 26.3408 12.2461 26.5296 12.2461 26.7607C12.2461 26.9658 12.321 27.1579 12.4707 27.3369C12.6204 27.516 12.863 27.7031 13.1982 27.8984L13.9453 28.3379C14.7786 28.8327 15.1953 29.4642 15.1953 30.2324C15.1953 30.7793 15.0114 31.2236 14.6436 31.5654C14.279 31.9072 13.8037 32.0781 13.2178 32.0781C12.5439 32.0781 11.9303 31.8714 11.377 31.458V30.2178C11.9043 30.8851 12.5146 31.2188 13.208 31.2188C13.514 31.2188 13.7679 31.1341 13.9697 30.9648C14.1748 30.7923 14.2773 30.5775 14.2773 30.3203C14.2773 29.9036 13.9779 29.5098 13.3789 29.1387Z" fill="#D4A575"/>
<path d="M34.9316 15.1787H35.9082V22H34.9316V15.1787Z" fill="#D4A575"/>
<path d="M28.2959 15.1689H33.9941V16.0381H31.6162V22H30.6348V16.0381H28.2959V15.1689Z" fill="#D4A575"/>
<path d="M23.9746 15.1787H24.9512V21.1113H28.0225V22H23.9746V15.1787Z" fill="#D4A575"/>
<path d="M21.6406 15.1787H22.6221V19.0508C22.6221 19.5749 22.583 19.9704 22.5049 20.2373C22.43 20.5042 22.3356 20.7272 22.2217 20.9062C22.111 21.082 21.9743 21.2399 21.8115 21.3799C21.2712 21.8454 20.5648 22.0781 19.6924 22.0781C18.8037 22.0781 18.0908 21.847 17.5537 21.3848C17.391 21.2415 17.2526 21.082 17.1387 20.9062C17.028 20.7272 16.9352 20.5091 16.8604 20.252C16.7887 19.9948 16.7529 19.5911 16.7529 19.041V15.1787H17.7344V19.0508C17.7344 19.6921 17.8076 20.138 17.9541 20.3887C18.1006 20.6393 18.3236 20.8411 18.623 20.9941C18.9225 21.1439 19.2757 21.2188 19.6826 21.2188C20.262 21.2188 20.734 21.0674 21.0986 20.7646C21.2907 20.6019 21.429 20.4098 21.5137 20.1885C21.5983 19.9671 21.6406 19.5879 21.6406 19.0508V15.1787Z" fill="#D4A575"/>
<path d="M14.5117 15.1787H15.4199V22H14.4385V16.6924L12.3389 19.3291H12.1582L10.0391 16.6924V22H9.0625V15.1787H9.98047L12.251 17.9814L14.5117 15.1787Z" fill="#D4A575"/>
<circle cx="22.5" cy="22.5" r="21.5" stroke="#D4A575" stroke-width="2"/>
</svg>
