<svg width="45" height="45" viewBox="0 0 45 45" fill="none" xmlns="http://www.w3.org/2000/svg">
<circle cx="22.5" cy="22.5" r="21.5" stroke="#D4A575" stroke-width="2"/>
<path d="M31.5176 24.6255V26.335H33.2271V27.3105H31.5176V29.02H30.542V27.3105H28.8325V26.335H30.542V24.6255H31.5176Z" fill="#D4A575"/>
<path d="M26.2617 24.6255V26.335H27.9712V27.3105H26.2617V29.02H25.2861V27.3105H23.5767V26.335H25.2861V24.6255H26.2617Z" fill="#D4A575"/>
<path d="M21.0059 24.6255V26.335H22.7153V27.3105H21.0059V29.02H20.0303V27.3105H18.3208V26.335H20.0303V24.6255H21.0059Z" fill="#D4A575"/>
<path d="M15.1304 23.8608L17.8418 30H16.5894L15.9521 28.5059H13.2231L12.6299 30H11.3862L13.9175 23.8608H15.1304ZM13.5835 27.605H15.5654L14.5283 25.1748L13.5835 27.605Z" fill="#D4A575"/>
<path d="M34.8486 14.7817L33.2095 21.0791H32.4272L34.0664 14.7817H34.8486Z" fill="#D4A575"/>
<path d="M30.252 15.6255V17.335H31.9614V18.3105H30.252V20.02H29.2764V18.3105H27.5669V17.335H29.2764V15.6255H30.252Z" fill="#D4A575"/>
<path d="M24.9961 15.6255V17.335H26.7056V18.3105H24.9961V20.02H24.0205V18.3105H22.311V17.335H24.0205V15.6255H24.9961Z" fill="#D4A575"/>
<path d="M19.7402 15.6255V17.335H21.4497V18.3105H19.7402V20.02H18.7646V18.3105H17.0552V17.335H18.7646V15.6255H19.7402Z" fill="#D4A575"/>
<path d="M13.8647 14.8608L16.5762 21H15.3237L14.6865 19.5059H11.9575L11.3643 21H10.1206L12.6519 14.8608H13.8647ZM12.3179 18.605H14.2998L13.2627 16.1748L12.3179 18.605Z" fill="#D4A575"/>
</svg>
