<svg width="45" height="45" viewBox="0 0 45 45" fill="none" xmlns="http://www.w3.org/2000/svg">
<circle cx="22.5" cy="22.5" r="21.5" stroke="#D4A575" stroke-width="2"/>
<path d="M35.7744 24.9434V26.3398C34.8434 26.8477 33.7686 27.1016 32.5498 27.1016C31.5596 27.1016 30.7196 26.9027 30.0298 26.5049C29.34 26.1071 28.7941 25.5591 28.3921 24.8608C27.9901 24.1626 27.7891 23.4072 27.7891 22.5947C27.7891 21.304 28.2482 20.2186 29.1665 19.3384C30.089 18.4582 31.2253 18.0181 32.5752 18.0181C33.5062 18.0181 34.5409 18.2614 35.6792 18.748V20.1128C34.6424 19.5203 33.6289 19.2241 32.6387 19.2241C31.623 19.2241 30.7788 19.5457 30.106 20.189C29.4373 20.828 29.103 21.6299 29.103 22.5947C29.103 23.568 29.4331 24.3678 30.0933 24.9941C30.7534 25.6204 31.5977 25.9336 32.626 25.9336C33.7008 25.9336 34.7503 25.6035 35.7744 24.9434Z" fill="#D4A575"/>
<path d="M22.8062 19.2939C22.8062 18.8115 22.9797 18.3989 23.3267 18.0562C23.6737 17.7091 24.0905 17.5356 24.5771 17.5356C25.0596 17.5356 25.4722 17.7091 25.8149 18.0562C26.1577 18.3989 26.3291 18.8115 26.3291 19.2939C26.3291 19.7806 26.1577 20.1974 25.8149 20.5444C25.4722 20.8872 25.0596 21.0586 24.5771 21.0586C24.0905 21.0586 23.6737 20.8872 23.3267 20.5444C22.9797 20.1974 22.8062 19.7806 22.8062 19.2939ZM23.498 19.2939C23.498 19.5902 23.6038 19.8441 23.8154 20.0557C24.027 20.2673 24.2809 20.373 24.5771 20.373C24.8691 20.373 25.1188 20.2673 25.3262 20.0557C25.5335 19.8441 25.6372 19.5902 25.6372 19.2939C25.6372 18.9977 25.5335 18.7459 25.3262 18.5386C25.123 18.3312 24.8734 18.2275 24.5771 18.2275C24.2767 18.2275 24.0207 18.3312 23.8091 18.5386C23.6017 18.7459 23.498 18.9977 23.498 19.2939Z" fill="#D4A575"/>
<path d="M19.4927 18.1069L19.6196 18.0181L20.3877 18.9893C19.7106 19.4251 19.1478 19.9012 18.6992 20.4175C18.2549 20.9338 17.9121 21.541 17.6709 22.2393C18.1406 21.998 18.6082 21.8774 19.0737 21.8774C19.772 21.8774 20.3602 22.125 20.8384 22.6201C21.3166 23.1152 21.5557 23.7225 21.5557 24.4419C21.5557 25.1825 21.2954 25.8109 20.7749 26.3271C20.2544 26.8434 19.6217 27.1016 18.877 27.1016C18.0433 27.1016 17.3683 26.8096 16.8521 26.2256C16.34 25.6374 16.084 24.8693 16.084 23.9214C16.084 23.2104 16.2152 22.5037 16.4775 21.8013C16.7441 21.0946 17.125 20.4344 17.6201 19.8208C18.1195 19.203 18.7437 18.6317 19.4927 18.1069ZM17.3979 23.5532C17.3641 23.7521 17.3472 23.9743 17.3472 24.2197C17.3472 24.7191 17.491 25.1296 17.7788 25.4512C18.0708 25.7728 18.4432 25.9336 18.896 25.9336C19.3022 25.9336 19.6366 25.7961 19.8989 25.521C20.1655 25.2459 20.2988 24.8989 20.2988 24.48C20.2988 24.0526 20.1571 23.7077 19.8735 23.4453C19.5942 23.1787 19.224 23.0454 18.7627 23.0454C18.5257 23.0454 18.3099 23.0814 18.1152 23.1533C17.9248 23.2253 17.6857 23.3586 17.3979 23.5532Z" fill="#D4A575"/>
<path d="M10.314 18.1323H14.2495V19.2622H11.4692V21.5029C11.5581 21.4945 11.6491 21.4902 11.7422 21.4902C12.6012 21.4902 13.3079 21.7526 13.8623 22.2773C14.4167 22.7979 14.6938 23.4622 14.6938 24.2705C14.6938 25.1042 14.4188 25.7834 13.8687 26.3081C13.3228 26.8286 12.6139 27.0889 11.7422 27.0889C11.0228 27.0889 10.3245 26.9154 9.64746 26.5684V25.2607C10.2865 25.6755 10.9106 25.8828 11.52 25.8828C12.0532 25.8828 12.4997 25.7284 12.8594 25.4194C13.2233 25.1063 13.4053 24.7233 13.4053 24.2705C13.4053 23.8008 13.2085 23.4093 12.8149 23.0962C12.4214 22.7788 11.9305 22.6201 11.3423 22.6201C10.8387 22.6201 10.4959 22.6624 10.314 22.7471V18.1323Z" fill="#D4A575"/>
</svg>
