<svg width="45" height="45" viewBox="0 0 45 45" fill="none" xmlns="http://www.w3.org/2000/svg">
<circle cx="22.5" cy="22.5" r="21.5" stroke="#D4A575" stroke-width="2"/>
<path d="M13.3457 22.3576H21.9911C22.6436 22.3576 23.0107 22.0095 23.0107 21.4207C23.0107 20.8318 22.6436 20.4971 21.9911 20.4971H14.7323V20.4436L22.3446 11.4092C22.7795 10.9006 22.8883 10.5927 22.8883 10.1912C22.8883 9.45508 22.3718 9 21.4746 9H13.0195C12.367 9 12 9.33459 12 9.92353C12 10.5258 12.367 10.8604 13.0195 10.8604H20.2648V10.9139L12.4758 20.1759C12.1631 20.5373 12.0815 20.805 12.0815 21.1931C12.0815 21.8891 12.5845 22.3576 13.3457 22.3576ZM27.1566 29.5583H34.0077C34.6466 29.5583 35 29.2371 35 28.6482C35 28.0994 34.6466 27.7648 34.0077 27.7648H28.4344V27.7113L34.2523 20.805C34.7145 20.2562 34.8641 19.9484 34.8641 19.5736C34.8641 18.8509 34.3747 18.4092 33.5047 18.4092H26.8304C26.2051 18.4092 25.838 18.7438 25.838 19.306C25.838 19.8815 26.2051 20.2027 26.8304 20.2027H32.3901V20.2562L26.409 27.3767C26.0556 27.7916 25.9332 28.0593 25.9332 28.4474C25.9332 29.1033 26.409 29.5583 27.1566 29.5583ZM17.3422 37H22.8339C23.4185 37 23.7583 36.6788 23.7583 36.1568C23.7583 35.6215 23.4185 35.327 22.8339 35.327H18.5384V35.2734L23.0514 29.8661C23.4864 29.3442 23.6223 29.023 23.6223 28.6348C23.6223 27.9924 23.1738 27.631 22.4397 27.631H17.0024C16.4178 27.631 16.0916 27.9388 16.0916 28.4608C16.0916 28.9962 16.4178 29.304 17.0024 29.304H21.3658V29.3442L16.6354 34.9656C16.3091 35.3672 16.2004 35.5947 16.2004 35.9695C16.2004 36.5717 16.6489 37 17.3422 37Z" fill="#D4A575"/>
</svg>
