<svg width="45" height="45" viewBox="0 0 45 45" fill="none" xmlns="http://www.w3.org/2000/svg">
<circle cx="22.5" cy="22.5" r="21.5" stroke="#D4A575" stroke-width="2"/>
<path d="M10 23.8395C10 30.5487 15.6034 36 22.5 36C29.3966 36 35 30.5487 35 23.8395C35 20.5082 33.6111 17.4564 31.3602 15.2666L32.342 14.3115L32.7969 14.7541C32.9885 14.9405 33.228 15.0337 33.4914 15.0337C33.7548 15.0337 33.9943 14.9405 34.1858 14.7541C34.569 14.3814 34.569 13.7757 34.1858 13.4029L31.9109 11.1898C31.5278 10.8171 30.9052 10.8171 30.522 11.1898C30.1389 11.5626 30.1389 12.1682 30.522 12.541L30.977 12.9836L29.8994 14.0319C28.0795 12.7274 25.9004 11.912 23.5057 11.7256V10.9103H25.6849C26.2356 10.9103 26.6667 10.4909 26.6667 9.95513C26.6667 9.41933 26.2356 9 25.6849 9H19.2193C18.6686 9 18.2375 9.41933 18.2375 9.95513C18.2375 10.4909 18.6686 10.9103 19.2193 10.9103H21.5421V11.7256C15.0766 12.2148 10 17.4564 10 23.8395ZM22.5 13.5893C28.319 13.5893 33.0603 18.2019 33.0603 23.8628C33.0603 29.5237 28.319 34.1363 22.5 34.1363C16.681 34.1363 11.9397 29.5237 11.9397 23.8628C11.9397 18.1786 16.681 13.5893 22.5 13.5893Z" fill="#D4A575"/>
<path d="M26.6299 19.3999V23.7773H27.269V24.8784H26.6299V27H25.2549V24.8784H22.188V23.9976L25.8403 19.3999H26.6299ZM25.2227 21.6772L23.563 23.7773H25.2549V21.6772H25.2227Z" fill="#D4A575"/>
<path d="M18.7183 19.3999C19.4308 19.3999 19.9966 19.604 20.4155 20.0122C20.8381 20.4168 21.0493 20.9575 21.0493 21.6343C21.0493 22.1499 20.8918 22.7085 20.5767 23.3101C20.2651 23.9116 19.7155 24.7083 18.9277 25.7002H21.5005V27H16.6396V26.8442C17.2054 26.146 17.6906 25.5194 18.0952 24.9644C18.5034 24.4058 18.8185 23.9438 19.0405 23.5786C19.2625 23.2098 19.4201 22.8965 19.5132 22.6387C19.6063 22.3809 19.6528 22.1141 19.6528 21.8384C19.6528 21.4946 19.5418 21.2064 19.3198 20.9736C19.1014 20.7373 18.8346 20.6191 18.5195 20.6191C17.9538 20.6191 17.3665 20.9414 16.7578 21.5859V20.1143C17.3988 19.638 18.0522 19.3999 18.7183 19.3999Z" fill="#D4A575"/>
</svg>
