<svg width="45" height="45" viewBox="0 0 45 45" fill="none" xmlns="http://www.w3.org/2000/svg">
<path d="M32.4003 22.405C33.9387 20.4008 34.3874 18.4881 33.6597 16.9872C32.9192 15.4627 31.0793 14.6231 28.4775 14.6231C28.107 14.6231 27.723 14.6445 27.3321 14.6772C26.2173 11.8124 24.4829 9.99988 22.4996 9.99988C20.5162 9.99988 18.7818 11.8119 17.667 14.6772C17.2772 14.644 16.8932 14.6231 16.5221 14.6231C13.9209 14.6231 12.0805 15.4627 11.3404 16.9872C10.6122 18.4881 11.0615 20.4008 12.5999 22.405C11.0615 24.4087 10.6122 26.3219 11.3404 27.8229C12.0805 29.3479 13.9209 30.1869 16.5216 30.1869C16.8927 30.1869 17.2772 30.1655 17.667 30.1329C18.7818 32.9981 20.5162 34.8096 22.4996 34.8096C24.4829 34.8096 26.2173 32.9976 27.3321 30.1329C27.7225 30.166 28.1064 30.1869 28.4775 30.1869C31.0782 30.1869 32.9186 29.3479 33.6592 27.8229C34.388 26.3225 33.9387 24.4087 32.4003 22.405ZM28.4775 16.23C30.4025 16.23 31.7642 16.7617 32.2145 17.6892C32.6311 18.5475 32.3013 19.7952 31.3165 21.1697C30.4801 20.3151 29.4885 19.4926 28.3736 18.7317C28.244 17.8589 28.0684 17.0305 27.8531 16.2552C28.0641 16.2429 28.2751 16.23 28.4775 16.23ZM24.4786 26.4804C23.8243 26.798 23.1614 27.0812 22.4996 27.3318C21.8383 27.0812 21.1748 26.798 20.521 26.4804C19.6771 26.0708 18.8798 25.6194 18.1285 25.1418C18.0284 24.277 17.9684 23.3667 17.9684 22.4045C17.9684 21.4428 18.0284 20.532 18.1285 19.6672C18.8798 19.1901 19.6771 18.7387 20.521 18.329C21.1753 18.0115 21.8383 17.7283 22.4996 17.4777C23.1614 17.7283 23.8248 18.0115 24.4786 18.329C25.322 18.7387 26.1193 19.1895 26.87 19.6672C26.9707 20.532 27.0307 21.4433 27.0307 22.405C27.0307 23.3667 26.9707 24.2775 26.87 25.1423C26.1204 25.6194 25.3225 26.0713 24.4786 26.4804ZM26.5257 27.2183C26.4374 27.6178 26.3404 28.0012 26.2328 28.3669C25.782 28.2898 25.3225 28.195 24.8535 28.0761C24.9627 28.0242 25.0719 27.9787 25.1806 27.9267C25.6411 27.7018 26.0872 27.4636 26.5257 27.2183ZM20.1462 28.0761C19.6771 28.195 19.2177 28.2898 18.7663 28.3669C18.6587 28.0012 18.5617 27.6178 18.4734 27.2178C18.9114 27.463 19.3574 27.7013 19.819 27.9251C19.9282 27.9787 20.0375 28.0242 20.1462 28.0761ZM16.4076 23.9252C15.7848 23.4347 15.214 22.9255 14.7166 22.405C15.214 21.884 15.7848 21.3758 16.4076 20.8848C16.3786 21.3828 16.362 21.8888 16.362 22.405C16.362 22.9212 16.3786 23.4272 16.4076 23.9252ZM18.4739 17.5917C18.5623 17.1923 18.6592 16.8083 18.7668 16.4426C19.2177 16.5202 19.6771 16.615 20.1462 16.7339C20.0375 16.7848 19.9282 16.8303 19.8195 16.8833C19.358 17.1082 18.9119 17.3465 18.4739 17.5917ZM24.8535 16.7344C25.3225 16.6156 25.782 16.5202 26.2328 16.4431C26.3399 16.8089 26.4374 17.1923 26.5257 17.5917C26.0877 17.3465 25.6417 17.1076 25.1806 16.8838C25.0725 16.8313 24.9627 16.7858 24.8535 16.7344ZM28.5921 20.8838C29.2143 21.3753 29.7856 21.8835 30.2831 22.4045C29.7856 22.9255 29.2143 23.4336 28.5921 23.9252C28.621 23.4272 28.6376 22.9212 28.6376 22.4045C28.6376 21.8883 28.6205 21.3823 28.5921 20.8838ZM22.4996 11.6063C23.6224 11.6063 24.8085 12.8314 25.6872 14.9042C24.6548 15.0959 23.5844 15.3872 22.5001 15.7695C21.4158 15.3872 20.3454 15.0964 19.313 14.9042C20.1906 12.8314 21.3772 11.6063 22.4996 11.6063ZM12.7857 17.6892C13.2355 16.7617 14.5977 16.23 16.5221 16.23C16.724 16.23 16.9355 16.2434 17.1465 16.2547C16.9312 17.0305 16.7561 17.8589 16.6266 18.7317C15.5117 19.4926 14.5195 20.3151 13.6842 21.1697C12.6984 19.7946 12.3685 18.5475 12.7857 17.6892ZM16.5216 28.58C14.5977 28.58 13.2355 28.0483 12.7857 27.1209C12.3685 26.262 12.6984 25.0143 13.6842 23.6403C14.5195 24.4949 15.5117 25.3174 16.6266 26.0783C16.7561 26.9511 16.9318 27.78 17.1465 28.5554C16.9355 28.5677 16.7235 28.58 16.5216 28.58ZM22.4996 33.2037C21.3772 33.2037 20.1906 31.9791 19.3125 29.9063C20.3448 29.7147 21.4152 29.4234 22.5001 29.0405C23.5844 29.4234 24.6548 29.7141 25.6872 29.9063C24.809 31.9791 23.6224 33.2037 22.4996 33.2037ZM32.2145 27.1214C31.7647 28.0483 30.403 28.5805 28.478 28.5805C28.2762 28.5805 28.0646 28.5671 27.8531 28.5559C28.0679 27.78 28.2435 26.9516 28.3736 26.0788C29.489 25.3179 30.4812 24.4949 31.3171 23.6409C32.3013 25.0149 32.6316 26.2625 32.2145 27.1214Z" fill="#D4A575"/>
<path d="M22.4995 24.896C23.8753 24.896 24.9905 23.7807 24.9905 22.405C24.9905 21.0293 23.8753 19.914 22.4995 19.914C21.1238 19.914 20.0085 21.0293 20.0085 22.405C20.0085 23.7807 21.1238 24.896 22.4995 24.896Z" fill="#D4A575"/>
<circle cx="22.5" cy="22.5" r="21.5" stroke="#D4A575" stroke-width="2"/>
</svg>
