<svg width="45" height="45" viewBox="0 0 45 45" fill="none" xmlns="http://www.w3.org/2000/svg">
<path d="M22.6002 22.1251C23.1416 22.1453 22.8392 22.8447 22.5655 23C21.8239 23.4211 20.9953 22.744 20.8002 22.0577C20.4511 20.8302 21.505 19.701 22.704 19.5001C24.4637 19.2052 25.9974 20.6167 26.2001 22.2597C26.4703 24.4494 24.6073 26.3126 22.4271 26.5C19.6834 26.7359 17.3801 24.5196 17.2002 21.9231C16.9823 18.7785 19.6815 16.1608 22.8425 16.0001C26.5675 15.8107 29.6504 18.8444 29.8001 22.3943C29.9729 26.4927 26.4302 29.8704 22.2886 30C17.5828 30.1473 13.7167 26.2917 13.6003 21.7885C13.4696 16.7366 17.8588 12.5965 22.9809 12.5001C28.6675 12.393 33.3183 17.0723 33.4 22.5289C33.49 28.5342 28.2529 33.4378 22.1502 33.5C15.483 33.568 10.0465 28.0638 10.0003 21.6539C9.95021 14.6953 16.0361 9.02747 23.1194 9.0001C30.7671 8.97056 36.99 15.3003 37 22.6635C37.0108 30.5755 30.0755 37.0079 22.0117 37C17.5086 36.9956 13.157 35.0114 10.2316 31.6905" stroke="#D4A575" stroke-linecap="round"/>
<circle cx="22.5" cy="22.5" r="21.5" stroke="#D4A575" stroke-width="2"/>
</svg>
