<svg width="45" height="45" viewBox="0 0 45 45" fill="none" xmlns="http://www.w3.org/2000/svg">
<circle cx="22.5" cy="22.5" r="21.5" stroke="#D4A575" stroke-width="2"/>
<path d="M18.9766 10.3574H27.8047L21.623 24.1562L19.8848 23.4238L24.8848 12.2227H18.9766V10.3574Z" fill="#D4A575"/>
<path d="M28.0293 30.3086V34H27.1357V30.3086H25.5586V29.5078H29.6064V30.3086H28.0293Z" fill="#D4A575"/>
<path d="M21.8818 31.8906C22.0251 32.7891 22.528 33.2383 23.3906 33.2383C23.6673 33.2383 23.9326 33.1911 24.1865 33.0967C24.4404 33.0023 24.6992 32.8704 24.9629 32.7012V33.5605C24.8262 33.6517 24.6911 33.7298 24.5576 33.7949C24.4274 33.86 24.2907 33.9154 24.1475 33.9609C24.0075 34.0033 23.8577 34.0342 23.6982 34.0537C23.5387 34.0765 23.363 34.0879 23.1709 34.0879C22.8226 34.0879 22.5133 34.0228 22.2432 33.8926C21.973 33.7591 21.7451 33.5817 21.5596 33.3604C21.374 33.139 21.2324 32.8851 21.1348 32.5986C21.0404 32.3089 20.9932 32.0094 20.9932 31.7002C20.9932 31.3584 21.0436 31.0475 21.1445 30.7676C21.2487 30.4876 21.3936 30.2484 21.5791 30.0498C21.7646 29.848 21.986 29.6934 22.2432 29.5859C22.5003 29.4753 22.7835 29.4199 23.0928 29.4199C23.3923 29.4199 23.6608 29.472 23.8984 29.5762C24.1393 29.6771 24.3444 29.8301 24.5137 30.0352C24.6829 30.2402 24.8132 30.4974 24.9043 30.8066C24.9954 31.1159 25.041 31.4772 25.041 31.8906H21.8818ZM24.1621 31.2998C24.1491 30.958 24.0498 30.6878 23.8643 30.4893C23.6787 30.2907 23.4281 30.1914 23.1123 30.1914C22.7673 30.1914 22.4938 30.2874 22.292 30.4795C22.0934 30.6715 21.9632 30.945 21.9014 31.2998H24.1621Z" fill="#D4A575"/>
<path d="M18.2979 29.4199H18.6201L20.5488 34H19.5967L18.4297 31.041L17.209 34H16.2275L18.2979 29.4199Z" fill="#D4A575"/>
</svg>
