<svg width="45" height="45" viewBox="0 0 45 45" fill="none" xmlns="http://www.w3.org/2000/svg">
<circle cx="22.5" cy="22.5" r="21.5" stroke="#D4A575" stroke-width="2"/>
<path d="M22.4999 33.2168C24.191 33.2168 25.5619 31.8459 25.5619 30.1548C25.5619 28.4638 24.191 27.0929 22.4999 27.0929C20.8089 27.0929 19.438 28.4638 19.438 30.1548C19.438 31.8459 20.8089 33.2168 22.4999 33.2168Z" fill="#D4A575"/>
<path d="M22.4997 21.9896C19.8684 21.9896 17.3832 23.2695 15.8518 25.4134C15.4149 26.025 15.5565 26.8749 16.1681 27.3118C16.4078 27.483 16.6842 27.5655 16.9579 27.5655C17.3825 27.5655 17.8009 27.3672 18.0664 26.9955C19.0881 25.5652 20.7454 24.7113 22.4997 24.7113C24.2541 24.7113 25.9113 25.5652 26.9329 26.9954C27.3697 27.6069 28.2196 27.7488 28.8313 27.3118C29.4428 26.875 29.5845 26.025 29.1477 25.4134C27.6164 23.2694 25.1312 21.9896 22.4997 21.9896Z" fill="#D4A575"/>
<path d="M22.5001 16.8864C18.7413 16.8864 15.1434 18.4913 12.6289 21.2896C12.1266 21.8486 12.1725 22.7091 12.7316 23.2114C12.9916 23.4451 13.3167 23.5601 13.6407 23.5601C14.0135 23.56 14.3847 23.4079 14.6534 23.1088C16.6525 20.8841 19.5125 19.6082 22.5002 19.6082C25.4878 19.6082 28.3479 20.8841 30.3471 23.1087C30.8495 23.6678 31.7099 23.7137 32.2689 23.2114C32.8279 22.709 32.8738 21.8486 32.3715 21.2896C29.8568 18.4912 26.2588 16.8864 22.5001 16.8864Z" fill="#D4A575"/>
<path d="M35.6103 17.2863C32.1266 13.7375 27.4706 11.7831 22.5 11.7831C17.5295 11.7831 12.8735 13.7375 9.38973 17.2865C8.86322 17.8229 8.87119 18.6844 9.40751 19.2109C9.67243 19.471 10.0167 19.6007 10.3608 19.6006C10.7132 19.6006 11.0656 19.4645 11.3319 19.1931C14.2999 16.1698 18.2661 14.5048 22.5 14.5048C26.7341 14.5048 30.7003 16.1698 33.6679 19.193C34.1945 19.7294 35.0561 19.7373 35.5924 19.2108C36.1287 18.6843 36.1367 17.8227 35.6103 17.2863Z" fill="#D4A575"/>
</svg>
