<svg width="45" height="45" viewBox="0 0 45 45" fill="none" xmlns="http://www.w3.org/2000/svg">
<circle cx="22.5" cy="22.5" r="21.5" stroke="#D4A575" stroke-width="2"/>
<path d="M31.8672 15.7217H33.6162L28.4307 28.0527H28.0352L22.7441 15.7217H24.5107L28.2021 24.3438L31.8672 15.7217Z" fill="#D4A575"/>
<path d="M19.8965 15.7217H21.6631V22.6914C21.6631 23.6348 21.5928 24.3467 21.4521 24.8271C21.3174 25.3076 21.1475 25.709 20.9424 26.0312C20.7432 26.3477 20.4971 26.6318 20.2041 26.8838C19.2314 27.7217 17.96 28.1406 16.3896 28.1406C14.79 28.1406 13.5068 27.7246 12.54 26.8926C12.2471 26.6348 11.998 26.3477 11.793 26.0312C11.5938 25.709 11.4268 25.3164 11.292 24.8535C11.1631 24.3906 11.0986 23.6641 11.0986 22.6738V15.7217H12.8652V22.6914C12.8652 23.8457 12.9971 24.6484 13.2607 25.0996C13.5244 25.5508 13.9258 25.9141 14.4648 26.1895C15.0039 26.459 15.6396 26.5938 16.3721 26.5938C17.415 26.5938 18.2646 26.3213 18.9209 25.7764C19.2666 25.4834 19.5156 25.1377 19.668 24.7393C19.8203 24.3408 19.8965 23.6582 19.8965 22.6914V15.7217Z" fill="#D4A575"/>
</svg>
