<svg width="45" height="45" viewBox="0 0 45 45" fill="none" xmlns="http://www.w3.org/2000/svg">
<circle cx="22.5" cy="22.5" r="21.5" stroke="#D4A575" stroke-width="2"/>
<path d="M31.1963 25.917V22.3838H27.6895V20.9072H31.1963V17.4004H32.6904V20.9072H36.1973V22.3838H32.6904V25.917H31.1963Z" fill="#D4A575"/>
<path d="M19.7266 22.709C19.7266 21.8477 20.04 21.168 20.667 20.6699C21.2998 20.166 22.1611 19.9141 23.251 19.9141H26.582V21.1621H24.9473C25.2637 21.4844 25.4834 21.7773 25.6064 22.041C25.7295 22.3047 25.791 22.6064 25.791 22.9463C25.791 23.3682 25.6709 23.7842 25.4307 24.1943C25.1904 24.5986 24.8799 24.9092 24.499 25.126C24.124 25.3428 23.5059 25.5156 22.6445 25.6445C22.041 25.7324 21.7393 25.9404 21.7393 26.2686C21.7393 26.4561 21.8506 26.6113 22.0732 26.7344C22.3018 26.8516 22.7119 26.9746 23.3037 27.1035C24.2939 27.3203 24.9297 27.4902 25.2109 27.6133C25.498 27.7363 25.7559 27.9121 25.9844 28.1406C26.3711 28.5273 26.5645 29.0137 26.5645 29.5996C26.5645 30.3672 26.2217 30.9795 25.5361 31.4365C24.8564 31.8936 23.9453 32.1221 22.8027 32.1221C21.6484 32.1221 20.7256 31.8906 20.0342 31.4277C19.3486 30.9707 19.0059 30.3555 19.0059 29.582C19.0059 28.4863 19.6826 27.7803 21.0361 27.4639C20.4971 27.1182 20.2275 26.7754 20.2275 26.4355C20.2275 26.1777 20.3418 25.9434 20.5703 25.7324C20.8047 25.5215 21.1182 25.3662 21.5107 25.2666C20.3213 24.7393 19.7266 23.8867 19.7266 22.709ZM22.7324 21.3027C22.2988 21.3027 21.9297 21.4492 21.625 21.7422C21.3203 22.0352 21.168 22.3867 21.168 22.7969C21.168 23.2129 21.3174 23.5586 21.6162 23.834C21.915 24.1035 22.293 24.2383 22.75 24.2383C23.2012 24.2383 23.5762 24.1006 23.875 23.8252C24.1797 23.5439 24.332 23.1953 24.332 22.7793C24.332 22.3574 24.1797 22.0059 23.875 21.7246C23.5703 21.4434 23.1895 21.3027 22.7324 21.3027ZM22.3545 28.3779C21.8154 28.3779 21.373 28.4922 21.0273 28.7207C20.6875 28.9492 20.5176 29.2422 20.5176 29.5996C20.5176 30.4316 21.2676 30.8477 22.7676 30.8477C23.4766 30.8477 24.0244 30.7422 24.4111 30.5312C24.8037 30.3262 25 30.0332 25 29.6523C25 29.2773 24.7539 28.9697 24.2617 28.7295C23.7695 28.4951 23.1338 28.3779 22.3545 28.3779Z" fill="#D4A575"/>
<path d="M12.2734 15.6514H13.5127L19.0059 28H17.2041L15.5693 24.3613H10.3486L8.80176 28H7L12.2734 15.6514ZM14.8486 22.7969L12.8711 18.3496L11.0342 22.7969H14.8486Z" fill="#D4A575"/>
</svg>
