<svg width="45" height="45" viewBox="0 0 45 45" fill="none" xmlns="http://www.w3.org/2000/svg">
<circle cx="22.5" cy="22.5" r="21.5" stroke="#D4A575" stroke-width="2"/>
<path d="M19.7812 10.625C17.0172 10.625 14.3664 11.723 12.4119 13.6775C10.4574 15.632 9.35938 18.2828 9.35938 21.0469C9.35938 23.8109 10.4574 26.4618 12.4119 28.4163C14.3664 30.3707 17.0172 31.4687 19.7812 31.4688C19.9014 31.4688 20.0167 31.421 20.1017 31.336C20.1866 31.2511 20.2344 31.1358 20.2344 31.0156C20.2344 30.8954 20.1866 30.7802 20.1017 30.6952C20.0167 30.6102 19.9014 30.5625 19.7812 30.5625C17.619 30.5617 15.5216 29.8245 13.8343 28.4724C12.147 27.1203 10.9705 25.2338 10.4986 23.1238C10.0267 21.0137 10.2874 18.8058 11.238 16.8637C12.1885 14.9216 13.7721 13.3612 15.728 12.4394C17.6838 11.5175 19.8953 11.2893 21.9982 11.7923C24.1011 12.2952 25.97 13.4993 27.2972 15.2064C28.6243 16.9134 29.3305 19.0215 29.2994 21.1835C29.2684 23.3455 28.502 25.4324 27.1264 27.1006C27.0883 27.1464 27.0596 27.1993 27.042 27.2562C27.0243 27.3131 27.0181 27.373 27.0235 27.4323C27.029 27.4916 27.0461 27.5493 27.0739 27.602C27.1016 27.6547 27.1395 27.7014 27.1853 27.7395C27.2311 27.7776 27.284 27.8063 27.3409 27.824C27.3978 27.8416 27.4576 27.8479 27.517 27.8424C27.5763 27.8369 27.634 27.8198 27.6867 27.7921C27.7394 27.7643 27.7861 27.7264 27.8242 27.6806C29.0827 26.1558 29.8814 24.3045 30.1273 22.3428C30.3731 20.381 30.0559 18.3899 29.2126 16.6017C28.3693 14.8135 27.0348 13.302 25.3648 12.2438C23.6949 11.1855 21.7583 10.6241 19.7812 10.625ZM35.1875 26.0312H32.4688C32.3486 26.0312 32.2333 26.079 32.1483 26.164C32.0634 26.2489 32.0156 26.3642 32.0156 26.4844V31.9219C32.0156 32.0421 32.0634 32.1573 32.1483 32.2423C32.2333 32.3273 32.3486 32.375 32.4688 32.375H35.1875C35.3077 32.375 35.4229 32.3273 35.5079 32.2423C35.5929 32.1573 35.6406 32.0421 35.6406 31.9219V26.4844C35.6406 26.3642 35.5929 26.2489 35.5079 26.164C35.4229 26.079 35.3077 26.0312 35.1875 26.0312ZM32.9219 26.9375H34.7344V31.4688H32.9219V26.9375Z" fill="#D4A575"/>
<path d="M32.4688 26.9375H19.7812C19.6611 26.9375 19.5458 26.9852 19.4608 27.0702C19.3759 27.1552 19.3281 27.2704 19.3281 27.3906C19.3281 27.5108 19.3759 27.6261 19.4608 27.711C19.5458 27.796 19.6611 27.8438 19.7812 27.8438H32.0156V30.5625H19.7812C19.6611 30.5625 19.5458 30.6102 19.4608 30.6952C19.3759 30.7802 19.3281 30.8954 19.3281 31.0156C19.3281 31.1358 19.3759 31.2511 19.4608 31.336C19.5458 31.421 19.6611 31.4688 19.7812 31.4688H32.4688C32.5889 31.4688 32.7042 31.421 32.7892 31.336C32.8741 31.2511 32.9219 31.1358 32.9219 31.0156V27.3906C32.9219 27.2704 32.8741 27.1552 32.7892 27.0702C32.7042 26.9852 32.5889 26.9375 32.4688 26.9375Z" fill="#D4A575"/>
<path d="M29.75 26.9375C29.6298 26.9375 29.5146 26.9852 29.4296 27.0702C29.3446 27.1552 29.2969 27.2704 29.2969 27.3906V31.0156C29.2969 31.1358 29.3446 31.2511 29.4296 31.336C29.5146 31.421 29.6298 31.4688 29.75 31.4688C29.8702 31.4688 29.9854 31.421 30.0704 31.336C30.1554 31.2511 30.2031 31.1358 30.2031 31.0156V27.3906C30.2031 27.2704 30.1554 27.1552 30.0704 27.0702C29.9854 26.9852 29.8702 26.9375 29.75 26.9375ZM19.7812 14.25C19.6611 14.25 19.5458 14.2977 19.4608 14.3827C19.3759 14.4677 19.3281 14.5829 19.3281 14.7031V19.2344C19.3281 19.3546 19.3759 19.4698 19.4608 19.5548C19.5458 19.6398 19.6611 19.6875 19.7812 19.6875C19.9014 19.6875 20.0167 19.6398 20.1017 19.5548C20.1866 19.4698 20.2344 19.3546 20.2344 19.2344V14.7031C20.2344 14.5829 20.1866 14.4677 20.1017 14.3827C20.0167 14.2977 19.9014 14.25 19.7812 14.25ZM19.7812 22.4062C19.6611 22.4062 19.5458 22.454 19.4608 22.539C19.3759 22.6239 19.3281 22.7392 19.3281 22.8594V27.3906C19.3281 27.5108 19.3759 27.6261 19.4608 27.711C19.5458 27.796 19.6611 27.8438 19.7812 27.8438C19.9014 27.8438 20.0167 27.796 20.1017 27.711C20.1866 27.6261 20.2344 27.5108 20.2344 27.3906V22.8594C20.2344 22.7392 20.1866 22.6239 20.1017 22.539C20.0167 22.454 19.9014 22.4062 19.7812 22.4062ZM26.125 20.5938H21.5938C21.4736 20.5938 21.3583 20.6415 21.2733 20.7265C21.1884 20.8114 21.1406 20.9267 21.1406 21.0469C21.1406 21.1671 21.1884 21.2823 21.2733 21.3673C21.3583 21.4523 21.4736 21.5 21.5938 21.5H26.125C26.2452 21.5 26.3604 21.4523 26.4454 21.3673C26.5304 21.2823 26.5781 21.1671 26.5781 21.0469C26.5781 20.9267 26.5304 20.8114 26.4454 20.7265C26.3604 20.6415 26.2452 20.5938 26.125 20.5938ZM17.9688 20.5938H13.4375C13.3173 20.5938 13.2021 20.6415 13.1171 20.7265C13.0321 20.8114 12.9844 20.9267 12.9844 21.0469C12.9844 21.1671 13.0321 21.2823 13.1171 21.3673C13.2021 21.4523 13.3173 21.5 13.4375 21.5H17.9688C18.0889 21.5 18.2042 21.4523 18.2892 21.3673C18.3741 21.2823 18.4219 21.1671 18.4219 21.0469C18.4219 20.9267 18.3741 20.8114 18.2892 20.7265C18.2042 20.6415 18.0889 20.5938 17.9688 20.5938ZM15.2953 16.1078C15.2357 16.1075 15.1766 16.1189 15.1214 16.1414C15.0661 16.164 15.0159 16.1972 14.9736 16.2392C14.9311 16.2813 14.8974 16.3315 14.8744 16.3867C14.8514 16.4419 14.8396 16.5011 14.8396 16.5609C14.8396 16.6208 14.8514 16.68 14.8744 16.7352C14.8974 16.7904 14.9311 16.8405 14.9736 16.8827L18.1772 20.0863C18.2625 20.1716 18.3782 20.2195 18.4989 20.2195C18.6196 20.2195 18.7353 20.1716 18.8206 20.0863C18.9059 20.0009 18.9539 19.8852 18.9539 19.7645C18.9539 19.6439 18.9059 19.5281 18.8206 19.4428L15.617 16.2392C15.5747 16.1972 15.5245 16.164 15.4693 16.1414C15.4141 16.1189 15.3549 16.1075 15.2953 16.1078ZM21.0636 21.8761C21.004 21.8757 20.9448 21.8872 20.8896 21.9097C20.8344 21.9323 20.7842 21.9655 20.7419 22.0075C20.6994 22.0496 20.6657 22.0997 20.6427 22.155C20.6197 22.2102 20.6078 22.2694 20.6078 22.3292C20.6078 22.389 20.6197 22.4483 20.6427 22.5035C20.6657 22.5587 20.6994 22.6088 20.7419 22.6509L23.9455 25.8545C24.0308 25.9399 24.1465 25.9878 24.2672 25.9878C24.3879 25.9878 24.5036 25.9399 24.5889 25.8545C24.6742 25.7692 24.7222 25.6535 24.7222 25.5328C24.7222 25.4121 24.6742 25.2964 24.5889 25.2111L21.3853 22.0075C21.343 21.9655 21.2928 21.9323 21.2376 21.9097C21.1823 21.8872 21.1232 21.8757 21.0636 21.8761ZM24.2672 16.1078C24.2076 16.1075 24.1484 16.1189 24.0932 16.1414C24.038 16.164 23.9878 16.1972 23.9455 16.2392L20.7419 19.4428C20.6566 19.5281 20.6086 19.6439 20.6086 19.7645C20.6086 19.8852 20.6566 20.0009 20.7419 20.0863C20.8272 20.1716 20.9429 20.2195 21.0636 20.2195C21.1843 20.2195 21.3 20.1716 21.3853 20.0863L24.5889 16.8827C24.6314 16.8405 24.6651 16.7904 24.6881 16.7352C24.7111 16.68 24.7229 16.6208 24.7229 16.5609C24.7229 16.5011 24.7111 16.4419 24.6881 16.3867C24.6651 16.3315 24.6314 16.2813 24.5889 16.2392C24.5466 16.1972 24.4964 16.164 24.4411 16.1414C24.3859 16.1189 24.3268 16.1075 24.2672 16.1078ZM18.4989 21.8761C18.4393 21.8757 18.3802 21.8872 18.3249 21.9097C18.2697 21.9323 18.2195 21.9655 18.1772 22.0075L14.9736 25.2111C14.9313 25.2533 14.8978 25.3035 14.875 25.3587C14.8521 25.4139 14.8403 25.4731 14.8403 25.5328C14.8403 25.5926 14.8521 25.6517 14.875 25.7069C14.8978 25.7621 14.9313 25.8123 14.9736 25.8545C15.0158 25.8968 15.066 25.9303 15.1212 25.9532C15.1764 25.976 15.2356 25.9878 15.2953 25.9878C15.3551 25.9878 15.4142 25.976 15.4694 25.9532C15.5246 25.9303 15.5748 25.8968 15.617 25.8545L18.8206 22.6509C18.8631 22.6088 18.8968 22.5587 18.9198 22.5035C18.9428 22.4483 18.9547 22.389 18.9547 22.3292C18.9547 22.2694 18.9428 22.2102 18.9198 22.155C18.8968 22.0997 18.8631 22.0496 18.8206 22.0075C18.7783 21.9655 18.7281 21.9323 18.6729 21.9097C18.6177 21.8872 18.5585 21.8757 18.4989 21.8761Z" fill="#D4A575"/>
<path d="M19.7813 14.25C18.437 14.25 17.1229 14.6486 16.0051 15.3955C14.8874 16.1423 14.0162 17.2039 13.5018 18.4458C12.9873 19.6878 12.8527 21.0544 13.115 22.3729C13.3772 23.6913 14.0246 24.9024 14.9751 25.853C15.9257 26.8035 17.1368 27.4509 18.4552 27.7131C19.7737 27.9754 21.1403 27.8408 22.3823 27.3264C23.6243 26.8119 24.6858 25.9408 25.4326 24.823C26.1795 23.7053 26.5781 22.3912 26.5781 21.0469C26.5781 19.2442 25.862 17.5154 24.5874 16.2408C23.3127 14.9661 21.5839 14.25 19.7813 14.25ZM19.7813 26.9375C18.6162 26.9375 17.4773 26.592 16.5086 25.9447C15.5399 25.2975 14.7849 24.3775 14.339 23.3011C13.8932 22.2247 13.7765 21.0403 14.0038 19.8977C14.2311 18.755 14.7921 17.7054 15.616 16.8816C16.4398 16.0578 17.4894 15.4967 18.632 15.2694C19.7747 15.0421 20.9591 15.1588 22.0355 15.6046C23.1119 16.0505 24.0319 16.8055 24.6791 17.7742C25.3264 18.7429 25.6719 19.8818 25.6719 21.0469C25.6719 22.6092 25.0513 24.1075 23.9466 25.2122C22.8418 26.3169 21.3435 26.9375 19.7813 26.9375Z" fill="#D4A575"/>
<path d="M19.7813 18.7812C19.3332 18.7812 18.8951 18.9141 18.5225 19.1631C18.15 19.412 17.8596 19.7659 17.6881 20.1799C17.5166 20.5938 17.4717 21.0494 17.5592 21.4889C17.6466 21.9284 17.8624 22.3321 18.1792 22.6489C18.4961 22.9658 18.8998 23.1815 19.3392 23.269C19.7787 23.3564 20.2343 23.3115 20.6483 23.14C21.0623 22.9686 21.4161 22.6782 21.665 22.3056C21.914 21.933 22.0469 21.495 22.0469 21.0469C22.0469 20.446 21.8082 19.8697 21.3833 19.4448C20.9584 19.0199 20.3821 18.7812 19.7813 18.7812ZM19.7813 22.4062C19.5124 22.4062 19.2496 22.3265 19.026 22.1772C18.8025 22.0278 18.6282 21.8155 18.5254 21.5671C18.4225 21.3187 18.3955 21.0454 18.448 20.7817C18.5004 20.518 18.6299 20.2758 18.82 20.0857C19.0101 19.8955 19.2524 19.7661 19.516 19.7136C19.7797 19.6612 20.0531 19.6881 20.3015 19.791C20.5499 19.8939 20.7622 20.0681 20.9115 20.2916C21.0609 20.5152 21.1406 20.778 21.1406 21.0469C21.1406 21.4074 20.9974 21.7532 20.7425 22.0081C20.4875 22.263 20.1418 22.4062 19.7813 22.4062Z" fill="#D4A575"/>
<path d="M19.7813 16.5156C18.8851 16.5156 18.009 16.7814 17.2638 17.2793C16.5187 17.7772 15.9379 18.4849 15.5949 19.3128C15.252 20.1408 15.1622 21.0519 15.3371 21.9309C15.5119 22.8099 15.9435 23.6172 16.5772 24.251C17.2109 24.8847 18.0183 25.3162 18.8972 25.4911C19.7762 25.6659 20.6873 25.5762 21.5153 25.2332C22.3433 24.8902 23.0509 24.3095 23.5488 23.5643C24.0467 22.8191 24.3125 21.9431 24.3125 21.0469C24.3125 19.8451 23.8351 18.6926 22.9853 17.8428C22.1356 16.993 20.983 16.5156 19.7813 16.5156ZM19.7813 24.6719C19.0643 24.6719 18.3634 24.4593 17.7673 24.0609C17.1712 23.6626 16.7066 23.0965 16.4322 22.4341C16.1578 21.7717 16.086 21.0429 16.2259 20.3397C16.3658 19.6365 16.711 18.9906 17.218 18.4836C17.725 17.9766 18.3709 17.6314 19.0741 17.4915C19.7772 17.3517 20.5061 17.4234 21.1685 17.6978C21.8309 17.9722 22.397 18.4368 22.7953 19.0329C23.1936 19.6291 23.4063 20.3299 23.4063 21.0469C23.4063 22.0083 23.0243 22.9303 22.3445 23.6101C21.6647 24.29 20.7427 24.6719 19.7813 24.6719Z" fill="#D4A575"/>
</svg>
