<svg width="45" height="45" viewBox="0 0 45 45" fill="none" xmlns="http://www.w3.org/2000/svg">
<path d="M20.9639 15.2666H21.0928C22.0309 15.2666 22.7435 15.0732 23.2305 14.6865C23.7246 14.2998 23.9717 13.7376 23.9717 13C23.9717 12.334 23.7318 11.7933 23.252 11.3779C22.7793 10.9626 22.1562 10.7549 21.3828 10.7549C20.6022 10.7549 19.7357 10.9984 18.7832 11.4854V9.43359C19.6569 8.99674 20.6094 8.77832 21.6406 8.77832C23.0228 8.77832 24.1113 9.13997 24.9062 9.86328C25.7083 10.5866 26.1094 11.5749 26.1094 12.8281C26.1094 13.5872 25.9554 14.2282 25.6475 14.751C25.3395 15.2666 24.849 15.7106 24.1758 16.083C24.763 16.3122 25.1927 16.5951 25.4648 16.9316C25.737 17.2611 25.9482 17.6621 26.0986 18.1348C26.249 18.6074 26.3242 19.1087 26.3242 19.6387C26.3242 20.9492 25.8874 22.0342 25.0137 22.8936C24.14 23.7458 23.0371 24.1719 21.7051 24.1719C20.5664 24.1719 19.4671 23.8962 18.4072 23.3447V21.0029C19.5387 21.7119 20.638 22.0664 21.7051 22.0664C22.4284 22.0664 23.0085 21.8516 23.4453 21.4219C23.8893 20.9922 24.1113 20.4229 24.1113 19.7139C24.1113 19.1195 23.9287 18.6003 23.5635 18.1562C23.3486 17.9056 23.1087 17.723 22.8438 17.6084C22.5859 17.4867 22.0238 17.3721 21.1572 17.2646L20.9639 17.2432V15.2666Z" fill="#D4A575"/>
<path d="M32.9854 30.29V30.0508C32.9854 29.7676 32.9186 29.5658 32.7852 29.4453C32.6517 29.3216 32.4482 29.2598 32.1748 29.2598C31.9307 29.2598 31.6865 29.32 31.4424 29.4404C31.2015 29.5576 30.9736 29.7448 30.7588 30.002V29.0303C31.1071 28.6234 31.6035 28.4199 32.248 28.4199C32.4759 28.4199 32.6891 28.4492 32.8877 28.5078C33.0863 28.5664 33.2588 28.6559 33.4053 28.7764C33.5518 28.8968 33.6673 29.0514 33.752 29.2402C33.8366 29.4258 33.8789 29.6455 33.8789 29.8994V32.209C33.8789 32.2936 33.8919 32.3538 33.918 32.3896C33.9473 32.4222 33.9896 32.4385 34.0449 32.4385C34.0905 32.4385 34.1556 32.4173 34.2402 32.375C34.3249 32.3327 34.4176 32.2741 34.5186 32.1992V32.7412C34.4176 32.8096 34.3281 32.8665 34.25 32.9121C34.1751 32.9544 34.1051 32.9886 34.04 33.0146C33.9749 33.0407 33.9115 33.0586 33.8496 33.0684C33.791 33.0814 33.7275 33.0879 33.6592 33.0879C33.4639 33.0879 33.3109 33.0537 33.2002 32.9854C33.0928 32.9137 33.0179 32.7949 32.9756 32.6289C32.7803 32.7852 32.5817 32.9007 32.3799 32.9756C32.1781 33.0505 31.9746 33.0879 31.7695 33.0879C31.6035 33.0879 31.4521 33.0586 31.3154 33C31.182 32.9382 31.0664 32.8568 30.9688 32.7559C30.8711 32.6549 30.7962 32.5394 30.7441 32.4092C30.6921 32.2757 30.666 32.1357 30.666 31.9893C30.666 31.7842 30.7035 31.61 30.7783 31.4668C30.8532 31.3236 30.9574 31.1999 31.0908 31.0957C31.2243 30.9883 31.3854 30.8939 31.5742 30.8125C31.763 30.7311 31.9714 30.6497 32.1992 30.5684L32.9854 30.29ZM32.9854 30.7783C32.7965 30.8434 32.6159 30.9102 32.4434 30.9785C32.2741 31.0469 32.1243 31.1217 31.9941 31.2031C31.8639 31.2845 31.7598 31.3757 31.6816 31.4766C31.6068 31.5775 31.5693 31.6947 31.5693 31.8281C31.5693 31.9193 31.5856 32.0039 31.6182 32.082C31.6507 32.1602 31.6947 32.2269 31.75 32.2822C31.8053 32.3376 31.8721 32.3815 31.9502 32.4141C32.0316 32.4434 32.1178 32.458 32.209 32.458C32.349 32.458 32.4824 32.4255 32.6094 32.3604C32.7396 32.2952 32.8649 32.2057 32.9854 32.0918V30.7783Z" fill="#D4A575"/>
<path d="M28.6348 29.3086V33H27.7412V29.3086H26.1641V28.5078H30.2119V29.3086H28.6348Z" fill="#D4A575"/>
<path d="M22.4873 30.8906C22.6305 31.7891 23.1335 32.2383 23.9961 32.2383C24.2728 32.2383 24.5381 32.1911 24.792 32.0967C25.0459 32.0023 25.3047 31.8704 25.5684 31.7012V32.5605C25.4316 32.6517 25.2965 32.7298 25.1631 32.7949C25.0329 32.86 24.8962 32.9154 24.7529 32.9609C24.613 33.0033 24.4632 33.0342 24.3037 33.0537C24.1442 33.0765 23.9684 33.0879 23.7764 33.0879C23.4281 33.0879 23.1188 33.0228 22.8486 32.8926C22.5785 32.7591 22.3506 32.5817 22.165 32.3604C21.9795 32.139 21.8379 31.8851 21.7402 31.5986C21.6458 31.3089 21.5986 31.0094 21.5986 30.7002C21.5986 30.3584 21.6491 30.0475 21.75 29.7676C21.8542 29.4876 21.999 29.2484 22.1846 29.0498C22.3701 28.848 22.5915 28.6934 22.8486 28.5859C23.1058 28.4753 23.389 28.4199 23.6982 28.4199C23.9977 28.4199 24.2663 28.472 24.5039 28.5762C24.7448 28.6771 24.9499 28.8301 25.1191 29.0352C25.2884 29.2402 25.4186 29.4974 25.5098 29.8066C25.6009 30.1159 25.6465 30.4772 25.6465 30.8906H22.4873ZM24.7676 30.2998C24.7546 29.958 24.6553 29.6878 24.4697 29.4893C24.2842 29.2907 24.0335 29.1914 23.7178 29.1914C23.3727 29.1914 23.0993 29.2874 22.8975 29.4795C22.6989 29.6715 22.5687 29.945 22.5068 30.2998H24.7676Z" fill="#D4A575"/>
<path d="M17.4141 33V28.5078H19.1133C19.3574 28.5078 19.5755 28.5371 19.7676 28.5957C19.9629 28.651 20.1273 28.7324 20.2607 28.8398C20.3975 28.944 20.5016 29.0693 20.5732 29.2158C20.6481 29.3623 20.6855 29.5234 20.6855 29.6992C20.6855 29.8294 20.666 29.9499 20.627 30.0605C20.5879 30.168 20.5374 30.264 20.4756 30.3486C20.4137 30.4333 20.3421 30.5065 20.2607 30.5684C20.1826 30.6302 20.1029 30.6807 20.0215 30.7197C20.1224 30.7653 20.2184 30.8174 20.3096 30.876C20.404 30.9313 20.487 30.9997 20.5586 31.0811C20.6302 31.1624 20.6872 31.2585 20.7295 31.3691C20.7718 31.4766 20.793 31.6035 20.793 31.75C20.793 31.9062 20.7653 32.0592 20.71 32.209C20.6579 32.3587 20.5716 32.4922 20.4512 32.6094C20.3307 32.7266 20.1729 32.821 19.9775 32.8926C19.7855 32.9642 19.5479 33 19.2646 33H17.4141ZM18.3027 29.3086V30.4609H18.9717C19.2191 30.4609 19.4144 30.4137 19.5576 30.3193C19.7008 30.2217 19.7725 30.0524 19.7725 29.8115C19.7725 29.7204 19.748 29.6439 19.6992 29.582C19.6504 29.5169 19.5869 29.4648 19.5088 29.4258C19.4307 29.3835 19.3444 29.3542 19.25 29.3379C19.1556 29.3184 19.0628 29.3086 18.9717 29.3086H18.3027ZM18.3027 31.0518V32.1992H19.1133C19.224 32.1992 19.3265 32.1895 19.4209 32.1699C19.5153 32.1471 19.5967 32.113 19.665 32.0674C19.7334 32.0186 19.7871 31.9583 19.8262 31.8867C19.8652 31.8118 19.8848 31.7223 19.8848 31.6182C19.8848 31.5205 19.8587 31.4375 19.8066 31.3691C19.7546 31.2975 19.6813 31.2389 19.5869 31.1934C19.4958 31.1445 19.3867 31.1087 19.2598 31.0859C19.1361 31.0632 19.001 31.0518 18.8545 31.0518H18.3027Z" fill="#D4A575"/>
<path d="M11.9746 33V28.5078H12.8633V32.1992H15.0654V28.5078H15.9541V32.1992H16.7549V34.0107H15.876V33H11.9746Z" fill="#D4A575"/>
<circle cx="22.5" cy="22.5" r="21.5" stroke="#D4A575" stroke-width="2"/>
</svg>
