<svg width="45" height="45" viewBox="0 0 45 45" fill="none" xmlns="http://www.w3.org/2000/svg">
<circle cx="22.5" cy="22.5" r="21.5" stroke="#D4A575" stroke-width="2"/>
<path fill-rule="evenodd" clip-rule="evenodd" d="M29.238 20.659H15.762C15.2136 20.659 14.8219 20.2673 14.8219 19.7189V17.3687C14.8219 15.4885 16.3105 14 18.1125 14H26.8875C28.6895 14 30.1781 15.4885 30.1781 17.3687V19.7189C30.1781 20.2673 29.7864 20.659 29.238 20.659ZM15.4486 31H12.0013C11.2962 31 10.8261 30.3733 11.0611 29.7465L14.3518 20.894C14.6652 21.3641 15.2136 21.5991 15.762 21.5991H29.238C29.7864 21.5991 30.3348 21.3641 30.6482 20.894L33.9389 29.7465C34.1739 30.3733 33.7038 31 32.9987 31H29.5514L27.7493 26.4562C27.5143 25.9078 26.6525 26.2212 26.8875 26.8479L28.5328 31H22.9701V25.9862C22.9701 25.3594 22.0299 25.3594 22.0299 25.9862V31H16.4672L18.1125 26.8479C18.3475 26.2212 17.4857 25.9078 17.2507 26.4562L15.4486 31Z" fill="#D4A575"/>
</svg>
