<svg width="2915" height="401" viewBox="0 0 2915 401" fill="none" xmlns="http://www.w3.org/2000/svg">
<g opacity="0.2">
<mask id="path-1-inside-1_2023_2055" fill="white">
<path d="M2068.75 79.1975H1902.11C1882.89 79.9417 1864.68 87.9716 1851.19 101.649C1837.7 115.326 1829.96 133.62 1829.53 152.798V401H1958.51V179.063C1958.5 170.273 1961.25 161.701 1966.37 154.543C1971.48 147.385 1978.71 141.996 1987.04 139.13C1993 137.785 1999.09 137.084 2005.2 137.042H2068.75V79.1975ZM2173.06 14.4193V79.2977H2124.95V137.326H2173.06V327.032C2173.42 346.205 2181.12 364.517 2194.57 378.216C2208.03 391.915 2226.23 399.964 2245.44 400.716H2453.73V342.955H2348.65C2342.75 343.036 2336.85 342.532 2331.04 341.452C2322.72 338.597 2315.5 333.226 2310.39 326.086C2305.27 318.946 2302.52 310.393 2302.51 301.619V137.326H2454.67V79.2977H2302.51V14.4193H2173.06ZM795.265 79.3646L466.007 79.0304V137.343H694.253C700.335 137.343 706.416 138.028 712.348 139.431C720.684 142.258 727.92 147.622 733.036 154.769C738.153 161.915 740.89 170.483 740.864 179.264V208.67H466.007V322.471C465.992 332.722 468.002 342.875 471.923 352.351C475.844 361.827 481.599 370.44 488.859 377.697C496.119 384.954 504.742 390.713 514.235 394.646C523.727 398.578 533.904 400.607 544.183 400.616H870.04V153.082C869.497 133.919 861.703 115.671 848.224 102.003C834.745 88.3354 816.58 80.2596 797.376 79.398H795.265V79.3646ZM1689.55 79.3646L1359.99 78.997V137.309H1588.27C1594.35 137.359 1600.4 138.061 1606.36 139.398C1614.78 142.171 1622.11 147.506 1627.33 154.651C1632.54 161.796 1635.39 170.392 1635.45 179.23V208.637H1360.01V322.471C1360.01 343.195 1368.27 363.069 1382.96 377.723C1397.66 392.377 1417.59 400.611 1438.37 400.616H1764.31V153.082C1763.91 133.903 1756.19 115.598 1742.72 101.904C1729.25 88.2102 1711.05 80.1602 1691.83 79.398H1689.55V79.3646ZM6.47223e-05 0V322.471C-0.0131451 332.709 1.99586 342.849 5.91238 352.313C9.8289 361.777 15.5762 370.378 22.8262 377.627C30.0762 384.876 38.6869 390.629 48.1666 394.559C57.6463 398.489 67.8094 400.519 78.0756 400.532H408.305V341.452H168.332C163.234 341.454 158.186 340.454 153.476 338.509C148.766 336.564 144.487 333.712 140.883 330.117C137.279 326.521 134.421 322.252 132.473 317.555C130.525 312.857 129.524 307.822 129.528 302.738V66.3989H403.798C405.306 66.282 406.797 66.282 408.288 66.3989V0H6.47223e-05ZM2836.46 79.2977H2510.8V326.364C2511.2 345.563 2518.95 363.883 2532.46 377.567C2545.97 391.251 2564.22 399.264 2583.46 399.964H2915V341.635L2686.74 342.203C2680.66 342.085 2674.61 341.357 2668.68 340.031C2660.23 337.293 2652.87 331.967 2647.64 324.811C2642.41 317.655 2639.58 309.036 2639.56 300.182V270.692H2914.43V157.543C2914.43 136.875 2906.23 117.046 2891.62 102.386C2877.01 87.7259 2857.18 79.4257 2836.46 79.2977ZM926.988 79.1975V166.164C926.283 177.414 928.047 188.683 932.155 199.184C936.264 209.684 942.62 219.166 950.78 226.966C960.279 233.415 975.023 251.995 1053.95 260.533C1085.23 263.958 1132.25 268.219 1146.3 272.112C1152.54 273.419 1158.56 275.59 1164.2 278.561C1167.25 279.764 1170.11 281.469 1172.64 283.574L1176.65 286.615C1184.19 292.129 1189.71 299.898 1192.45 308.82C1193.28 313.231 1193.72 317.692 1193.79 322.187V342.187H926.888V399.597H1305.34V306.431C1306.14 294.029 1303.91 281.619 1298.84 270.267C1293.76 258.916 1286 248.964 1276.22 241.268L1273.17 238.996C1266.16 234.284 1258.59 230.462 1250.63 227.618L1247.68 226.448C1223.74 218.151 1198.91 212.656 1173.7 210.074C1150.58 207.501 1096.74 204.56 1083.63 201.536C1074.21 200.317 1065.02 197.757 1056.33 193.934L1055.09 193.265L1052.36 191.661C1049.27 190.421 1046.45 188.587 1044.07 186.265C1037.42 181.213 1032.43 174.312 1029.71 166.432C1028.57 161.357 1027.96 156.177 1027.9 150.977V137.409H1305.34V79.1975H926.988ZM595.351 323.039V259.597H741.45V356.907H629.597C620.534 356.876 611.851 353.265 605.452 346.864C599.052 340.463 595.456 331.794 595.452 322.755L595.351 323.039ZM1489.53 323.039V259.597H1635.73V356.907H1523.98C1519.5 356.909 1515.06 356.03 1510.91 354.319C1506.77 352.609 1503 350.101 1499.83 346.938C1496.66 343.776 1494.15 340.021 1492.43 335.889C1490.72 331.756 1489.83 327.327 1489.84 322.855V322.755L1489.53 323.039ZM2639.78 122.723H2751.61C2770.48 122.723 2785.79 137.961 2785.86 156.774V220.132H2639.66L2639.78 122.723Z"/>
</mask>
<path d="M2068.75 79.1975H1902.11C1882.89 79.9417 1864.68 87.9716 1851.19 101.649C1837.7 115.326 1829.96 133.62 1829.53 152.798V401H1958.51V179.063C1958.5 170.273 1961.25 161.701 1966.37 154.543C1971.48 147.385 1978.71 141.996 1987.04 139.13C1993 137.785 1999.09 137.084 2005.2 137.042H2068.75V79.1975ZM2173.06 14.4193V79.2977H2124.95V137.326H2173.06V327.032C2173.42 346.205 2181.12 364.517 2194.57 378.216C2208.03 391.915 2226.23 399.964 2245.44 400.716H2453.73V342.955H2348.65C2342.75 343.036 2336.85 342.532 2331.04 341.452C2322.72 338.597 2315.5 333.226 2310.39 326.086C2305.27 318.946 2302.52 310.393 2302.51 301.619V137.326H2454.67V79.2977H2302.51V14.4193H2173.06ZM795.265 79.3646L466.007 79.0304V137.343H694.253C700.335 137.343 706.416 138.028 712.348 139.431C720.684 142.258 727.92 147.622 733.036 154.769C738.153 161.915 740.89 170.483 740.864 179.264V208.67H466.007V322.471C465.992 332.722 468.002 342.875 471.923 352.351C475.844 361.827 481.599 370.44 488.859 377.697C496.119 384.954 504.742 390.713 514.235 394.646C523.727 398.578 533.904 400.607 544.183 400.616H870.04V153.082C869.497 133.919 861.703 115.671 848.224 102.003C834.745 88.3354 816.58 80.2596 797.376 79.398H795.265V79.3646ZM1689.55 79.3646L1359.99 78.997V137.309H1588.27C1594.35 137.359 1600.4 138.061 1606.36 139.398C1614.78 142.171 1622.11 147.506 1627.33 154.651C1632.54 161.796 1635.39 170.392 1635.45 179.23V208.637H1360.01V322.471C1360.01 343.195 1368.27 363.069 1382.96 377.723C1397.66 392.377 1417.59 400.611 1438.37 400.616H1764.31V153.082C1763.91 133.903 1756.19 115.598 1742.72 101.904C1729.25 88.2102 1711.05 80.1602 1691.83 79.398H1689.55V79.3646ZM6.47223e-05 0V322.471C-0.0131451 332.709 1.99586 342.849 5.91238 352.313C9.8289 361.777 15.5762 370.378 22.8262 377.627C30.0762 384.876 38.6869 390.629 48.1666 394.559C57.6463 398.489 67.8094 400.519 78.0756 400.532H408.305V341.452H168.332C163.234 341.454 158.186 340.454 153.476 338.509C148.766 336.564 144.487 333.712 140.883 330.117C137.279 326.521 134.421 322.252 132.473 317.555C130.525 312.857 129.524 307.822 129.528 302.738V66.3989H403.798C405.306 66.282 406.797 66.282 408.288 66.3989V0H6.47223e-05ZM2836.46 79.2977H2510.8V326.364C2511.2 345.563 2518.95 363.883 2532.46 377.567C2545.97 391.251 2564.22 399.264 2583.46 399.964H2915V341.635L2686.74 342.203C2680.66 342.085 2674.61 341.357 2668.68 340.031C2660.23 337.293 2652.87 331.967 2647.64 324.811C2642.41 317.655 2639.58 309.036 2639.56 300.182V270.692H2914.43V157.543C2914.43 136.875 2906.23 117.046 2891.62 102.386C2877.01 87.7259 2857.18 79.4257 2836.46 79.2977ZM926.988 79.1975V166.164C926.283 177.414 928.047 188.683 932.155 199.184C936.264 209.684 942.62 219.166 950.78 226.966C960.279 233.415 975.023 251.995 1053.95 260.533C1085.23 263.958 1132.25 268.219 1146.3 272.112C1152.54 273.419 1158.56 275.59 1164.2 278.561C1167.25 279.764 1170.11 281.469 1172.64 283.574L1176.65 286.615C1184.19 292.129 1189.71 299.898 1192.45 308.82C1193.28 313.231 1193.72 317.692 1193.79 322.187V342.187H926.888V399.597H1305.34V306.431C1306.14 294.029 1303.91 281.619 1298.84 270.267C1293.76 258.916 1286 248.964 1276.22 241.268L1273.17 238.996C1266.16 234.284 1258.59 230.462 1250.63 227.618L1247.68 226.448C1223.74 218.151 1198.91 212.656 1173.7 210.074C1150.58 207.501 1096.74 204.56 1083.63 201.536C1074.21 200.317 1065.02 197.757 1056.33 193.934L1055.09 193.265L1052.36 191.661C1049.27 190.421 1046.45 188.587 1044.07 186.265C1037.42 181.213 1032.43 174.312 1029.71 166.432C1028.57 161.357 1027.96 156.177 1027.9 150.977V137.409H1305.34V79.1975H926.988ZM595.351 323.039V259.597H741.45V356.907H629.597C620.534 356.876 611.851 353.265 605.452 346.864C599.052 340.463 595.456 331.794 595.452 322.755L595.351 323.039ZM1489.53 323.039V259.597H1635.73V356.907H1523.98C1519.5 356.909 1515.06 356.03 1510.91 354.319C1506.77 352.609 1503 350.101 1499.83 346.938C1496.66 343.776 1494.15 340.021 1492.43 335.889C1490.72 331.756 1489.83 327.327 1489.84 322.855V322.755L1489.53 323.039ZM2639.78 122.723H2751.61C2770.48 122.723 2785.79 137.961 2785.86 156.774V220.132H2639.66L2639.78 122.723Z" stroke="white" stroke-width="2" mask="url(#path-1-inside-1_2023_2055)"/>
</g>
</svg>
