<svg width="50" height="64" viewBox="0 0 50 64" fill="none" xmlns="http://www.w3.org/2000/svg">
<g clip-path="url(#clip0_2011_45)">
<path d="M35.3047 0H14.6953C13.1854 0.00173149 11.7378 0.616194 10.6701 1.70858C9.60235 2.80097 9.00175 4.28209 9 5.82699V58.1732C9.00175 59.718 9.60236 61.1991 10.6701 62.2915C11.7378 63.3839 13.1854 63.9983 14.6953 64H35.3047C36.8146 63.9983 38.2622 63.3839 39.3299 62.2915C40.3976 61.1991 40.9983 59.718 41 58.1732V5.82699C40.9983 4.28209 40.3976 2.80097 39.3299 1.70858C38.2622 0.616194 36.8146 0.00173149 35.3047 0ZM38.6042 58.1732C38.6032 59.0681 38.2552 59.9262 37.6366 60.559C37.0181 61.1918 36.1794 61.5478 35.3047 61.5487H14.6953C13.8206 61.5478 12.9819 61.1918 12.3634 60.559C11.7448 59.9262 11.3968 59.0681 11.3958 58.1732V5.82699C11.3968 4.93197 11.7448 4.07391 12.3633 3.44106C12.9819 2.80821 13.8205 2.45225 14.6953 2.45127H17.3266V3.4806C17.3274 4.22024 17.6149 4.92935 18.1261 5.45235C18.6372 5.97535 19.3303 6.26954 20.0532 6.27036H30.01C30.7329 6.26956 31.426 5.97538 31.9372 5.45238C32.4484 4.92938 32.7359 4.22026 32.7368 3.4806V2.45127H35.3047C36.1795 2.45225 37.0181 2.80821 37.6367 3.44106C38.2552 4.07391 38.6032 4.93197 38.6042 5.82699V58.1732Z" fill="#D4A575"/>
</g>
<defs>
<clipPath id="clip0_2011_45">
<rect width="50" height="64" fill="white"/>
</clipPath>
</defs>
</svg>
