<svg width="50" height="38" viewBox="0 0 50 38" fill="none" xmlns="http://www.w3.org/2000/svg">
<g clip-path="url(#clip0_2011_39)">
<path d="M39.2898 31.2588C37.6107 33.0933 35.5304 34.5427 33.1893 35.4809L33.1725 35.4876L33.156 35.4949C30.9825 36.4587 28.6388 36.9799 26.2617 37.0279C23.8845 37.0759 21.5217 36.6499 19.311 35.7747C17.1004 34.8995 15.0862 33.5927 13.3862 31.9305C11.6861 30.2684 10.3342 28.2841 9.40947 26.0938C8.4847 23.9034 8.00557 21.5507 8.00005 19.1731C7.99453 16.7955 8.46272 14.4407 9.37731 12.246C10.2919 10.0514 11.6345 8.06089 13.3268 6.39084C15.0191 4.72079 17.0272 3.40461 19.2338 2.51916L19.252 2.51186L19.2698 2.50386C21.6322 1.44665 24.1981 0.977306 26.7517 1.11379C23.4109 2.89999 20.7754 5.79798 19.3203 9.3308C17.6637 13.3528 17.6726 17.8682 19.3452 21.8836C21.0178 25.899 24.217 29.0855 28.2391 30.7422C31.7665 32.1951 35.6734 32.3668 39.2898 31.2588Z" stroke="#D4A575" stroke-width="2"/>
</g>
<defs>
<clipPath id="clip0_2011_39">
<rect width="50" height="38" fill="white"/>
</clipPath>
</defs>
</svg>
