<svg width="50" height="41" viewBox="0 0 50 41" fill="none" xmlns="http://www.w3.org/2000/svg">
<path d="M25.5095 8.51835V8.51831L25.4997 8.51835C24.7185 8.52216 23.9396 8.8443 23.2326 9.27946C22.5109 9.72357 21.7753 10.3405 21.0595 11.0592C19.6266 12.4977 18.1896 14.4281 17.0125 16.4591C15.8382 18.4851 14.8878 20.6708 14.4745 22.6279C14.0758 24.5159 14.1106 26.5346 15.4076 27.8252C16.3437 28.7566 17.9152 29.3951 19.6237 29.8109C21.3744 30.237 23.4326 30.4676 25.4961 30.4756L25.5039 30.4755C27.5674 30.4676 29.6255 30.237 31.3762 29.8109C33.0848 29.3951 34.6563 28.7566 35.5924 27.8252C36.8893 26.5346 36.9242 24.5159 36.5257 22.628C36.1126 20.6709 35.1625 18.4852 33.9888 16.4593C32.8122 14.4283 31.3762 12.498 29.9447 11.0596C29.2296 10.3409 28.4948 9.72393 27.7741 9.27978C27.0681 8.84467 26.29 8.52217 25.5095 8.51835ZM25.5 40C14.7304 40 6 31.2696 6 20.5C6 9.73045 14.7304 1 25.5 1C36.2696 1 45 9.73045 45 20.5C45 31.2696 36.2696 40 25.5 40Z" stroke="#D4A575" stroke-width="2"/>
</svg>
