<svg width="132" height="44" viewBox="0 0 132 44" fill="none" xmlns="http://www.w3.org/2000/svg">
<rect width="132" height="44" rx="5" fill="#101010"/>
<path fill-rule="evenodd" clip-rule="evenodd" d="M28.3871 18.682L26.0591 21.01L18.0491 13C18.2721 13.008 18.5171 13.074 18.7791 13.223L28.3871 18.682ZM16.9991 14.251C16.9991 14.145 17.0061 14.047 17.0201 13.954L25.0681 22L17.0191 30.049C17.0047 29.9497 16.9976 29.8494 16.9981 29.749V14.252L16.9991 14.251ZM26.0591 22.992L18.0511 31C18.2741 30.992 18.5181 30.926 18.7791 30.777L28.3861 25.319L26.0591 22.992ZM29.6511 19.4L32.4461 20.99C33.4261 21.546 33.4261 22.457 32.4461 23.013L29.6501 24.603L27.0501 22.003L29.6501 19.4H29.6511Z" fill="#CACACA"/>
<path d="M49.104 21.64H52.768V26.248C51.408 26.84 50.08 27.144 48.768 27.144C46.736 27.144 45.104 26.408 44.192 25.304C43.28 24.216 42.8 22.936 42.8 21.64C42.8 19.672 43.696 17.88 45.536 16.776C46.448 16.216 47.504 15.944 48.704 15.944C50.096 15.944 51.12 16.248 52.544 16.872V18.472C51.248 17.72 49.952 17.336 48.672 17.336C47.536 17.336 46.544 17.72 45.696 18.504C44.848 19.288 44.432 20.312 44.432 21.544C44.432 22.776 44.832 23.784 45.648 24.568C46.464 25.368 47.52 25.768 48.816 25.768C49.408 25.768 50.208 25.608 51.2 25.288V23.016H49.104V21.64ZM58.2918 19.672C59.3798 19.672 60.2918 20.024 61.0118 20.712C61.7318 21.4 62.0998 22.312 62.0998 23.432C62.0998 24.616 61.7158 25.528 60.9318 26.168C60.1478 26.824 59.2518 27.144 58.2438 27.144C57.1078 27.144 56.1957 26.776 55.4918 26.056C54.7718 25.336 54.4198 24.44 54.4198 23.4C54.4198 22.36 54.7718 21.464 55.4918 20.744C56.1957 20.024 57.1238 19.672 58.2918 19.672ZM58.2118 20.952C56.8678 20.952 55.8758 21.88 55.8758 23.416C55.8758 24.232 56.1158 24.856 56.6118 25.256C57.1078 25.656 57.6518 25.864 58.2758 25.864C59.6838 25.864 60.6438 24.856 60.6438 23.4C60.6438 22.584 60.3878 21.96 59.8918 21.56C59.3958 21.16 58.8358 20.952 58.2118 20.952ZM67.1199 19.672C68.2079 19.672 69.1199 20.024 69.8399 20.712C70.5599 21.4 70.9279 22.312 70.9279 23.432C70.9279 24.616 70.5439 25.528 69.7599 26.168C68.9759 26.824 68.0799 27.144 67.0719 27.144C65.9359 27.144 65.0239 26.776 64.3199 26.056C63.5999 25.336 63.2479 24.44 63.2479 23.4C63.2479 22.36 63.5999 21.464 64.3199 20.744C65.0239 20.024 65.9519 19.672 67.1199 19.672ZM67.0399 20.952C65.6959 20.952 64.7039 21.88 64.7039 23.416C64.7039 24.232 64.9439 24.856 65.4399 25.256C65.9359 25.656 66.4799 25.864 67.1039 25.864C68.5119 25.864 69.4719 24.856 69.4719 23.4C69.4719 22.584 69.2159 21.96 68.7199 21.56C68.2239 21.16 67.6639 20.952 67.0399 20.952ZM75.276 19.816H78.236V20.92H76.764C77.26 21.416 77.516 21.944 77.516 22.488C77.516 23.048 77.212 23.736 76.844 24.104C76.572 24.392 76.188 24.584 75.692 24.696C75.196 24.808 74.78 24.904 74.444 24.984C74.108 25.064 73.932 25.224 73.932 25.464C73.932 25.848 74.588 26.088 76.124 26.392C77.516 26.664 78.204 27.336 78.204 28.392C78.204 29.816 76.94 30.68 74.812 30.68C73.836 30.68 73.052 30.472 72.428 30.072C71.804 29.656 71.5 29.128 71.5 28.504C71.5 27.432 72.076 26.824 73.308 26.52C72.828 26.216 72.588 25.912 72.588 25.608C72.588 25.144 73.036 24.76 73.724 24.584V24.552C73.196 24.328 72.796 24.024 72.524 23.64C72.268 23.272 72.14 22.824 72.14 22.296C72.14 20.76 73.34 19.816 75.276 19.816ZM76.236 22.312C76.236 21.624 75.596 21.048 74.844 21.048C74.06 21.048 73.42 21.64 73.42 22.344C73.42 23.128 74.012 23.656 74.86 23.656C75.676 23.656 76.236 23.096 76.236 22.312ZM76.828 28.504C76.828 27.944 76.14 27.56 75.484 27.448C75.148 27.384 74.812 27.352 74.476 27.352C73.516 27.352 72.844 27.8 72.844 28.44C72.844 29.176 73.516 29.544 74.844 29.544C76.108 29.544 76.828 29.16 76.828 28.504ZM79.3681 16.088H80.7921V27H79.3681V16.088ZM88.8361 24.904V26.296C87.9561 26.856 87.0281 27.144 86.0201 27.144C85.0121 27.144 84.1961 26.808 83.5401 26.136C82.8201 25.4 82.4681 24.472 82.4681 23.368C82.4681 22.264 82.7881 21.368 83.4121 20.68C84.0361 20.008 84.8521 19.672 85.8281 19.672C87.4761 19.672 88.6281 20.84 88.8841 22.456C88.9321 22.776 88.9641 23.128 88.9641 23.528H83.9081C83.9721 24.744 84.7721 25.784 86.2281 25.784C87.1721 25.784 88.0361 25.496 88.8361 24.904ZM83.9401 22.68H87.5561C87.5401 22.408 87.4921 22.168 87.3001 21.704C87.0921 21.24 86.5641 20.904 85.8121 20.904C85.2521 20.904 84.8041 21.112 84.4361 21.512C84.1801 21.784 84.0201 22.184 83.9401 22.68ZM95.0575 27V16.088H97.8735C98.4335 16.088 98.8495 16.104 99.1215 16.12C99.3935 16.136 99.7295 16.216 100.098 16.36C100.466 16.504 100.802 16.728 101.09 17.016C101.65 17.576 101.938 18.296 101.938 19.176C101.938 20.056 101.634 20.792 101.026 21.384C100.338 22.04 99.4895 22.264 97.7775 22.264H96.6255V27H95.0575ZM97.8095 17.464H96.6255V20.872H97.8735C98.7215 20.872 99.2975 20.776 99.6015 20.584C100.082 20.296 100.322 19.816 100.322 19.144C100.322 18.616 100.162 18.216 99.8415 17.928C99.6175 17.72 99.3775 17.576 99.1375 17.528C98.8815 17.48 98.4335 17.464 97.8095 17.464ZM103.134 16.088H104.558V27H103.134V16.088ZM112.234 25.72V26.584C111.674 26.952 111.21 27.144 110.858 27.144C110.25 27.144 109.882 26.904 109.77 26.408C109.146 26.904 108.506 27.144 107.834 27.144C106.81 27.144 106.074 26.344 106.074 25.384C106.17 24.488 106.426 24.072 107.178 23.672C107.45 23.528 107.674 23.432 107.818 23.368C107.962 23.32 108.186 23.224 108.522 23.112L109.786 22.664V22.28C109.786 21.432 109.354 21.016 108.49 21.016C107.642 21.016 106.874 21.416 106.218 22.2V20.648C106.778 19.992 107.562 19.672 108.602 19.672C110.138 19.672 111.21 20.488 111.21 22.04V25.736C111.21 25.976 111.306 26.104 111.482 26.104C111.642 26.104 111.898 25.976 112.234 25.72ZM109.786 25.544V23.448C108.266 23.96 107.514 24.36 107.514 25.128C107.514 25.72 107.946 26.136 108.538 26.136C108.954 26.136 109.37 25.944 109.786 25.544ZM117.314 19.816H118.914L113.826 30.68H112.242L114.69 25.464L111.906 19.816H113.522L115.458 23.864L117.314 19.816Z" fill="#CACACA"/>
</svg>
