<svg width="260" height="36" viewBox="0 0 260 36" fill="none" xmlns="http://www.w3.org/2000/svg">
<path d="M184.52 7.11H169.657C167.942 7.17681 166.318 7.8977 165.115 9.12557C163.912 10.3534 163.221 11.9958 163.183 13.7175V36H174.687V16.0755C174.686 15.2864 174.931 14.5168 175.388 13.8742C175.844 13.2315 176.489 12.7478 177.232 12.4905C177.763 12.3697 178.307 12.3068 178.852 12.303H184.52V7.11ZM193.824 1.2945V7.119H189.532V12.3285H193.824V29.3595C193.856 31.0808 194.542 32.7247 195.742 33.9545C196.943 35.1844 198.566 35.907 200.28 35.9745H218.858V30.789H209.485C208.958 30.7962 208.432 30.751 207.915 30.654C207.172 30.3978 206.528 29.9156 206.072 29.2746C205.616 28.6336 205.37 27.8657 205.37 27.078V12.3285H218.942V7.119H205.37V1.2945H193.824ZM70.9327 7.125L41.565 7.095V12.33H61.9231C62.4655 12.33 63.008 12.3915 63.537 12.5175C64.2805 12.7713 64.926 13.2529 65.3823 13.8945C65.8386 14.536 66.0828 15.3052 66.0805 16.0935V18.7335H41.565V28.95C41.5636 29.8703 41.7429 30.7818 42.0926 31.6325C42.4424 32.4832 42.9557 33.2564 43.6032 33.908C44.2508 34.5595 45.0198 35.0765 45.8665 35.4296C46.7132 35.7826 47.621 35.9647 48.5378 35.9655H77.6022V13.743C77.5537 12.0227 76.8586 10.3845 75.6564 9.15742C74.4541 7.93036 72.8339 7.20535 71.121 7.128H70.9327V7.125ZM150.697 7.125L121.303 7.092V12.327H141.664C142.206 12.3315 142.746 12.3945 143.278 12.5145C144.028 12.7635 144.682 13.2424 145.148 13.8839C145.613 14.5253 145.866 15.297 145.872 16.0905V18.7305H121.304V28.95C121.305 30.8105 122.041 32.5947 123.352 33.9103C124.662 35.2258 126.44 35.9651 128.293 35.9655H157.365V13.743C157.33 12.0212 156.641 10.3779 155.44 9.1485C154.239 7.91912 152.615 7.19643 150.901 7.128H150.697V7.125ZM5.77283e-06 0V28.95C-0.00117246 29.8691 0.178019 30.7795 0.527348 31.6291C0.876677 32.4787 1.3893 33.2509 2.03596 33.9017C2.68261 34.5524 3.45063 35.069 4.29616 35.4218C5.14169 35.7746 6.04818 35.9568 6.96386 35.958H36.4183V30.654H15.0141C14.5595 30.6542 14.1092 30.5644 13.6891 30.3898C13.269 30.2152 12.8873 29.9592 12.5659 29.6364C12.2444 29.3136 11.9895 28.9304 11.8158 28.5086C11.642 28.0869 11.5527 27.6349 11.5531 27.1785V5.961H36.0163C36.1508 5.9505 36.2838 5.9505 36.4168 5.961V0H5.77283e-06ZM252.994 7.119H223.948V29.2995C223.984 31.0232 224.675 32.6678 225.88 33.8963C227.085 35.1248 228.713 35.8442 230.429 35.907H260V30.6705L239.64 30.7215C239.098 30.7109 238.559 30.6455 238.029 30.5265C237.276 30.2807 236.62 29.8025 236.153 29.1601C235.687 28.5177 235.435 27.7439 235.432 26.949V24.3015H259.949V14.1435C259.949 12.288 259.218 10.5079 257.915 9.19175C256.612 7.87564 254.843 7.13049 252.994 7.119ZM82.6816 7.11V14.9175C82.6187 15.9275 82.776 16.9391 83.1425 17.8818C83.509 18.8245 84.0759 19.6757 84.8037 20.376C85.651 20.955 86.9661 22.623 94.0061 23.3895C96.7962 23.697 100.989 24.0795 102.243 24.429C102.8 24.5464 103.337 24.7413 103.839 25.008C104.111 25.116 104.367 25.269 104.592 25.458L104.95 25.731C105.622 26.226 106.115 26.9235 106.359 27.7245C106.433 28.1205 106.472 28.521 106.478 28.9245V30.72H82.6727V35.874H116.428V27.51C116.5 26.3966 116.301 25.2825 115.848 24.2634C115.396 23.2443 114.703 22.3509 113.831 21.66L113.559 21.456C112.934 21.033 112.258 20.6898 111.549 20.4345L111.286 20.3295C109.15 19.5846 106.936 19.0913 104.687 18.8595C102.624 18.6285 97.8228 18.3645 96.6527 18.093C95.8129 17.9836 94.9931 17.7537 94.2183 17.4105L94.1077 17.3505L93.8642 17.2065C93.5884 17.0951 93.3371 16.9305 93.1244 16.722C92.5317 16.2685 92.086 15.649 91.8437 14.9415C91.742 14.4859 91.6879 14.0209 91.6824 13.554V12.336H116.428V7.11H82.6816ZM53.1017 29.001V23.3055H66.1328V32.0415H56.1562C55.3478 32.0387 54.5734 31.7145 54.0026 31.1399C53.4317 30.5652 53.111 29.787 53.1106 28.9755L53.1017 29.001ZM132.857 29.001V23.3055H145.897V32.0415H135.93C135.53 32.0417 135.134 31.9628 134.764 31.8092C134.394 31.6556 134.059 31.4305 133.776 31.1466C133.493 30.8627 133.269 30.5256 133.116 30.1546C132.963 29.7836 132.884 29.386 132.884 28.9845V28.9755L132.857 29.001ZM235.452 11.0175H245.427C247.109 11.0175 248.475 12.3855 248.481 14.0745V19.7625H235.441L235.452 11.0175Z" fill="white"/>
</svg>
